<svg id="Layer_1" data-name="Layer 1" xmlns="http://www.w3.org/2000/svg" viewBox="0 0 480 376.1"><path d="M80,276a8,8,0,0,0-8,8v14.4A149.42,149.42,0,0,1,28,404.73l-9.6,9.6a8,8,0,1,0,11.31,11.31l9.6-9.6A165.28,165.28,0,0,0,88,298.4V284A8,8,0,0,0,80,276Z" transform="translate(0 -52)"/><path d="M400,276a8,8,0,0,0-8,8v14.4A165.29,165.29,0,0,0,440.73,416l9.6,9.6a8,8,0,0,0,11.31-11.31l-9.6-9.6A149.4,149.4,0,0,1,408,298.4V284A8,8,0,0,0,400,276Z" transform="translate(0 -52)"/><path d="M125.66,425.66A143.61,143.61,0,0,0,168,323.43V300a8,8,0,0,0-16,0v23.43a127.68,127.68,0,0,1-37.66,90.91,8,8,0,1,0,11.32,11.32Z" transform="translate(0 -52)"/><path d="M320,292a8,8,0,0,0-8,8v23.43a143.61,143.61,0,0,0,42.34,102.23,8,8,0,0,0,11.32-11.32A127.68,127.68,0,0,1,328,323.43V300A8,8,0,0,0,320,292Z" transform="translate(0 -52)"/><path d="M240,420V292a8,8,0,0,0-16,0V420a8,8,0,0,0,16,0Z" transform="translate(0 -52)"/><path d="M456,52H24A24,24,0,0,0,0,76V236a24,24,0,0,0,24,24H456a24,24,0,0,0,24-24V76A24,24,0,0,0,456,52ZM56,244V228H424v16Zm368-32H56V196H424Zm40,24a8,8,0,0,1-8,8H440V180H40v64H24a8,8,0,0,1-8-8V76a8,8,0,0,1,8-8H456a8,8,0,0,1,8,8Z" transform="translate(0 -52)"/><path d="M160,108H320v16H160Z" transform="translate(0 -52)"/><path d="M432,84h16v16H432Z" transform="translate(0 -52)"/><path d="M400,84h16v16H400Z" transform="translate(0 -52)"/></svg>