<?xml version="1.0" encoding="utf-8"?>
<!-- Generator: Adobe Illustrator 23.0.0, SVG Export Plug-In . SVG Version: 6.00 Build 0)  -->
<svg version="1.1" id="Layer_1" xmlns="http://www.w3.org/2000/svg" xmlns:xlink="http://www.w3.org/1999/xlink" x="0px" y="0px"
	 viewBox="0 0 100 100" style="enable-background:new 0 0 100 100;" xml:space="preserve">
<style type="text/css">
	.st0{fill:#838383;}
</style>
<g>
	<path class="st0" d="M33.7,63.4L33.7,63.4L33.7,63.4h48.7c1.2,0,2.3-0.8,2.6-1.9l10.7-37.6c0.2-0.8,0.1-1.7-0.4-2.4
		c-0.5-0.7-1.3-1.1-2.1-1.1H27.5l-1.9-8.6c-0.3-1.2-1.4-2.1-2.6-2.1H6.9c-1.5,0-2.7,1.2-2.7,2.7s1.2,2.7,2.7,2.7h13.9
		c0.3,1.5,9.2,41.3,9.7,43.6c-2.9,1.2-4.9,4.1-4.9,7.4c0,4.4,3.6,8.1,8.1,8.1h48.7c1.5,0,2.7-1.2,2.7-2.7s-1.2-2.7-2.7-2.7H33.7
		c-1.5,0-2.7-1.2-2.7-2.7C31,64.6,32.2,63.4,33.7,63.4z M89.6,25.8L80.4,58H35.9l-7.2-32.2H89.6z"/>
	<path class="st0" d="M31,82.2c0,4.4,3.6,8.1,8.1,8.1s8.1-3.6,8.1-8.1c0-4.4-3.6-8.1-8.1-8.1S31,77.8,31,82.2z M39.1,79.5
		c1.5,0,2.7,1.2,2.7,2.7s-1.2,2.7-2.7,2.7s-2.7-1.2-2.7-2.7S37.6,79.5,39.1,79.5z"/>
	<path class="st0" d="M69,82.2c0,4.4,3.6,8.1,8.1,8.1s8.1-3.6,8.1-8.1c0-4.4-3.6-8.1-8.1-8.1S69,77.8,69,82.2z M77,79.5
		c1.5,0,2.7,1.2,2.7,2.7s-1.2,2.7-2.7,2.7s-2.7-1.2-2.7-2.7S75.5,79.5,77,79.5z"/>
</g>
</svg>
