<?xml version="1.0" encoding="utf-8"?>
<!-- Generator: Adobe Illustrator 25.0.0, SVG Export Plug-In . SVG Version: 6.00 Build 0)  -->
<svg version="1.1" id="Layer_1" xmlns="http://www.w3.org/2000/svg" xmlns:xlink="http://www.w3.org/1999/xlink" x="0px" y="0px"
	 viewBox="0 0 362.5 383.5" style="enable-background:new 0 0 362.5 383.5;" xml:space="preserve">
<style type="text/css">
	.st0{fill:#E04312;}
</style>
<path class="st0" d="M362.5,82.9c0-17.5-14.2-31.7-31.8-31.8h-6.6V19c0-10.5-8.5-18.9-19-19h-12.8c-10.5,0-19,8.5-19,19v32.2H89.1
	V19c0-10.5-8.5-19-19-19H57.3c-10.5,0-19,8.5-19,19v32.2h-6.6C14.2,51.2,0,65.4,0,82.9v268.8c0,17.5,14.2,31.7,31.8,31.8h299
	c17.5,0,31.7-14.2,31.8-31.8V82.9z M285.7,18.9c0-3.7,3-6.6,6.6-6.6h12.8c3.7,0,6.6,3,6.6,6.7v64c0,3.7-3,6.7-6.6,6.7h-12.8
	c-3.7,0-6.6-3-6.6-6.7L285.7,18.9z M50.7,18.9c0-3.7,3-6.6,6.6-6.6h12.8c3.7,0,6.7,3,6.7,6.7l0,0v64c0,3.7-3,6.7-6.7,6.7l0,0H57.3
	c-3.7,0-6.7-3-6.7-6.7l0,0L50.7,18.9z M350.2,351.7c0,10.7-8.7,19.4-19.5,19.5h-299c-10.7,0-19.4-8.7-19.4-19.4V165.9h337.9
	L350.2,351.7z M350.2,153.6H12.3V82.9c0-10.7,8.7-19.4,19.4-19.4h6.7v19.4c0,10.5,8.5,19,19,19h12.8c10.5,0,19-8.5,19-19V63.5h184.3
	v19.4c0,10.4,8.4,18.8,18.8,18.9h12.8c10.5,0,19-8.5,19-19V63.5h6.6c10.7,0,19.4,8.7,19.5,19.4L350.2,153.6z"/>
<path class="st0" d="M248.1,83.2H115.3c-3.4,0-6.1,2.8-6.2,6.2v38.4c0,3.4,2.8,6.1,6.2,6.1h132.8c3.4,0,6.1-2.8,6.1-6.1V89.3
	C254.3,86,251.5,83.2,248.1,83.2z M242,121.6H121.5V95.5H242V121.6z"/>
<path class="st0" d="M82.9,185.6H44.5c-3.4,0-6.1,2.8-6.2,6.1v32c0,3.4,2.8,6.1,6.2,6.1H83c3.4,0,6.1-2.8,6.2-6.1v-32
	C89.1,188.3,86.3,185.6,82.9,185.6z M76.8,217.6H50.7v-19.7h26.1L76.8,217.6z"/>
<path class="st0" d="M115.6,223.8c0,3.4,2.8,6.1,6.1,6.1h38.4c3.4,0,6.1-2.8,6.1-6.1v-32c0-3.4-2.8-6.1-6.1-6.1h-38.4
	c-3.4,0-6.1,2.8-6.1,6.1V223.8z M127.9,197.9H154v19.7h-26.1V197.9z"/>
<path class="st0" d="M243.9,191.8c0-3.4-2.8-6.1-6.1-6.1h-38.4c-3.4,0-6.1,2.8-6.1,6.1v32c0,3.4,2.8,6.1,6.1,6.1h38.4
	c3.4,0,6.1-2.8,6.1-6.1L243.9,191.8z M231.6,217.6h-26.1v-19.7h26.1V217.6z"/>
<path class="st0" d="M317,185.6h-38.4c-3.4,0-6.1,2.8-6.1,6.1v32c0,3.4,2.8,6.1,6.1,6.1H317c3.4,0,6.1-2.8,6.1-6.1v-32
	C323.1,188.4,320.3,185.6,317,185.6z M310.8,217.6h-26.1v-19.7h26.1V217.6z"/>
<path class="st0" d="M82.9,249.6H44.5c-3.4,0-6.1,2.8-6.2,6.2v32c0,3.4,2.8,6.1,6.2,6.1H83c3.4,0,6.1-2.8,6.2-6.1v-32
	C89.1,252.3,86.3,249.6,82.9,249.6z M76.8,281.6H50.7v-19.7h26.1L76.8,281.6z"/>
<path class="st0" d="M160.1,249.6h-38.4c-3.4,0-6.1,2.8-6.1,6.2v32c0,3.4,2.8,6.1,6.1,6.1h38.4c3.4,0,6.1-2.8,6.1-6.1v-32
	C166.3,252.4,163.5,249.6,160.1,249.6z M154,281.6h-26.1v-19.7H154V281.6z"/>
<path class="st0" d="M243.9,255.8c0-3.4-2.8-6.1-6.1-6.1h-38.4c-3.4,0-6.1,2.8-6.1,6.1v32c0,3.4,2.8,6.1,6.1,6.1h38.4
	c3.4,0,6.1-2.8,6.1-6.1L243.9,255.8z M231.6,281.6h-26.1v-19.7h26.1V281.6z"/>
<path class="st0" d="M317,249.6h-38.4c-3.4,0-6.1,2.8-6.1,6.2v32c0,3.4,2.8,6.1,6.1,6.1H317c3.4,0,6.1-2.8,6.1-6.1v-32
	C323.1,252.4,320.3,249.6,317,249.6z M310.8,281.6h-26.1v-19.7h26.1V281.6z"/>
<path class="st0" d="M82.9,313.1H44.5c-3.7,0-6.6,3-6.7,6.6v32c0,3.7,3,6.6,6.7,6.6H83c3.7,0,6.7-3,6.7-6.6v-32
	C89.6,316.1,86.6,313.1,82.9,313.1L82.9,313.1z M76.3,326.4v18.7H51.2v-18.7H76.3z"/>
<path class="st0" d="M115.6,351.8c0,3.4,2.8,6.1,6.1,6.1h38.4c3.4,0,6.1-2.8,6.1-6.1v-32c0-3.4-2.8-6.1-6.1-6.1h-38.4
	c-3.4,0-6.1,2.8-6.1,6.1V351.8z M127.9,325.9H154v19.7h-26.1V325.9z"/>
<path class="st0" d="M197.5,328.4l-8.7,8.7l19,19c1.2,1.2,2.7,1.8,4.4,1.8c0.1,0,0.2,0,0.3,0c1.7-0.1,3.3-0.9,4.5-2.2l31.8-38.2
	l-9.4-7.9l-27.5,33L197.5,328.4z"/>
<path class="st0" d="M289,357.9c0.1,0,0.2,0,0.3,0c1.7-0.1,3.3-0.9,4.5-2.2l31.8-38.2l-9.5-7.9l-31.6,33.1l-10.2-14.2l-8.7,8.7
	l19,19C285.7,357.2,287.3,357.9,289,357.9z"/>
</svg>
