<?xml version="1.0" encoding="utf-8"?>
<!-- Generator: Adobe Illustrator 25.0.0, SVG Export Plug-In . SVG Version: 6.00 Build 0)  -->
<svg version="1.1" id="Layer_1" xmlns="http://www.w3.org/2000/svg" xmlns:xlink="http://www.w3.org/1999/xlink" x="0px" y="0px"
	 viewBox="0 0 416 480" style="enable-background:new 0 0 416 480;" xml:space="preserve">
<style type="text/css">
	.st0{fill:#E04312;}
</style>
<path class="st0" d="M128,280c8.8,0,16,7.2,16,16c0,4.4,3.6,8,8,8s8-3.6,8-8c-0.1-14.5-9.9-27.2-24-30.9V256c0-4.4-3.6-8-8-8
	s-8,3.6-8,8v9.1c-17.1,4.4-27.4,21.7-23.1,38.8c3.6,14.2,16.4,24.1,31.1,24c8.8,0,16,7.2,16,16s-7.2,16-16,16s-16-7.2-16-16
	c0-4.4-3.6-8-8-8s-8,3.6-8,8c0.1,14.5,9.9,27.2,24,30.9v9.1c0,4.4,3.6,8,8,8s8-3.6,8-8v-9.1c17.1-4.4,27.4-21.7,23.1-38.8
	c-3.6-14.2-16.4-24.1-31.1-24.1c-8.8,0-16-7.2-16-16S119.2,280,128,280z"/>
<path class="st0" d="M152,200h-48c-4.4,0-8,3.6-8,8s3.6,8,8,8h48c4.4,0,8-3.6,8-8S156.4,200,152,200z"/>
<path class="st0" d="M152,424h-48c-4.4,0-8,3.6-8,8s3.6,8,8,8h48c4.4,0,8-3.6,8-8S156.4,424,152,424z"/>
<path class="st0" d="M406.3,308L288.9,104.6c7.2-7.2,13.7-15.1,19.1-23.7c13.3-21.6,15.7-42.1,6.7-57.7
	c-17.9-31.1-74.6-30.8-129,0.6c-7.2,4.2-14.2,8.9-20.8,14l-6.4-7.3C143.7,13.6,118,12,101.3,26.8c-1.3,1.1-2.5,2.3-3.6,3.6
	l-87.5,99.1C3.6,136.9,0,146.4,0,156.3V408c0,39.7,32.3,72,72,72h112c39.7,0,72-32.3,72-72V156.3c0-7.7-2.2-15.2-6.4-21.7h0.1
	c9.6-5.5,18.6-11.9,27.1-18.9L392.5,316c15.5,26.8,6.3,61-20.5,76.5c0,0,0,0,0,0l-97,56c-4.3,2.4-8.8,4.3-13.6,5.5
	c-4.3,1.2-6.8,5.6-5.6,9.8c1.2,4.2,5.5,6.7,9.7,5.6c6.1-1.6,12-4,17.5-7.1l97-56C414.4,386.5,426.2,342.5,406.3,308
	C406.3,308,406.3,308,406.3,308z M240,408c0,30.9-25.1,56-56,56H72c-30.9,0-56-25.1-56-56V156.3c0-6,2.2-11.8,6.1-16.2L109.6,41
	c8.9-10.2,24.4-11.2,34.6-2.2c0.8,0.7,1.5,1.4,2.2,2.2l78,88.4c-17.8,8.4-37.3,12.7-57.1,12.7c0.4-2,0.6-4,0.6-6.1
	c0-22.1-17.9-40-40-40c-0.9,0-1.7,0.2-2.6,0.5c-4-0.5-7.8,2.1-8.7,6.1c-2.8,10.9-1.5,22.5,3.9,32.5c5.3,8.8,13.6,15.4,23.3,18.7
	c-9.8,8.9-24.9,8.2-33.8-1.6c-4-4.4-6.3-10.2-6.2-16.3c0-4.4-3.6-8-8-8c-4.4,0-8,3.6-8,8c0,22.1,17.8,40,39.9,40
	c13.6,0,26.3-6.9,33.7-18.3c3.1,0.3,6.3,0.5,9.5,0.5c22.3-0.7,44.3-6.2,64.3-16.2c3,4.2,4.7,9.2,4.7,14.3V408z M152,136
	c0,1.2-0.2,2.3-0.4,3.5c-7.1-1.8-13.2-6.3-17.1-12.4c-2.5-4.5-3.5-9.7-3-14.8C143.2,114.1,151.9,124.1,152,136z M241.6,120.7
	c-0.8,0.5-1.6,0.9-2.4,1.3l-63.8-72.2c5.8-4.4,11.9-8.4,18.2-12.1c45.1-26,94.1-29,107.1-6.4c6,10.3,3.6,25-6.5,41.3
	c-4,6.3-8.6,12.3-13.8,17.7l-0.1-0.1c-4.9-8.5-12.8-15-22.2-18.1L227,61.4c-4.2-1.3-8.7,1.1-10,5.4c-1.2,4,0.9,8.3,4.9,9.8
	l31.3,10.5c5.7,1.9,10.4,5.8,13.4,11l2,3.5C260.3,108.8,251.2,115.2,241.6,120.7L241.6,120.7z"/>
<path class="st0" d="M273.1,322.5c2.2,3.8,7.1,5.1,10.9,2.9l55.4-32c3.8-2.2,5.1-7.1,2.9-10.9s-7.1-5.1-10.9-2.9l0,0l-55.4,32
	C272.2,313.7,270.9,318.6,273.1,322.5z"/>
<path class="st0" d="M283.2,372c2.2,3.8,7.1,5.1,10.9,2.9l69.3-40c3.8-2.2,5.1-7.1,2.9-10.9s-7.1-5.1-10.9-2.9l-69.3,40
	C282.3,363.3,281,368.2,283.2,372z"/>
<path class="st0" d="M287.7,275.8c1.4,0,2.8-0.4,4-1.1l27.7-16c3.8-2.2,5.1-7.1,2.9-10.9c-2.2-3.8-7.1-5.1-10.9-2.9l-27.7,16
	c-3.8,2.2-5.1,7.1-2.9,10.9C282.2,274.3,284.8,275.8,287.7,275.8L287.7,275.8z"/>
</svg>
