<svg xmlns="http://www.w3.org/2000/svg" width="203.303" height="169.542" viewBox="0 0 203.303 169.542">
  <g id="Group_40" data-name="Group 40" transform="translate(24.58 56.568) rotate(101)" opacity="0.34">
    <path id="Path_3" data-name="Path 3" d="M710.561,300.847c-.171,1.479-.313,2.962-.518,4.437a26.56,26.56,0,0,1-4.11,11.336,6.55,6.55,0,0,1-3.455,2.7c-.693.233-1.371.512-2.049.786a10.086,10.086,0,0,0-6.6,7.825,31.978,31.978,0,0,1-9.76,17.041c-.772.742-1.544,1.493-2.242,2.3a9.456,9.456,0,0,0-2.468,7.079,13.885,13.885,0,0,1-1.559,7.26c-.821,1.7-1.719,3.361-2.511,5.072-1.313,2.837-1.076,4.009,1.084,6.3,2.322,2.462,4.751,4.837,6.9,7.44a49.872,49.872,0,0,1,7.75,13.709,5.979,5.979,0,0,1-1.651,7.2,23.654,23.654,0,0,1-1.1-2.909,52.063,52.063,0,0,0-10.859-21.174c-1.305-1.591-2.725-3.089-4.087-4.633-.258-.293-.492-.608-.73-.9.933-1.146.95-1.334-.011-2.448-2.4-2.779-4.811-5.541-7.217-8.311-.183-.211-.36-.428-.574-.684,1.593-2.374,3.172-4.737,4.76-7.094q10.072-14.942,20.139-29.888a24.89,24.89,0,0,1,5.308-5.761,64.9,64.9,0,0,0,14.89-16.852,9.5,9.5,0,0,1,.663-.841Z" transform="translate(-617.041 -394.467)" fill="#fff"/>
    <path id="Path_4" data-name="Path 4" d="M199.325-175.11c2.329,2.7,2.78,6.2,3.928,9.391a45.336,45.336,0,0,1,2.629,12.271c.317,4.625-.824,9-2.221,13.335-.956,2.972-1.879,5.958-2.717,8.965a2.941,2.941,0,0,0,1.081,3.476,3.015,3.015,0,0,0,3.639-.151,9.2,9.2,0,0,0,1.872-1.683c1.446-1.762,1.864-3.944,2.291-6.1.284-1.436.489-2.888.748-4.329.56-3.121,2.379-5.571,4.339-7.915a42.81,42.81,0,0,1,3.764-4,14.8,14.8,0,0,0,3.844-5.59,16.952,16.952,0,0,1,.9-1.966,27.948,27.948,0,0,1-.785,7.773,10.64,10.64,0,0,1-4.07,5.765,8.641,8.641,0,0,0-3.841,7.173,21.3,21.3,0,0,1-1.874,8.769,10.306,10.306,0,0,1-1.343,2.333,21.221,21.221,0,0,0-4.395,10.023c-.242,1.259-.46,2.523-.716,3.932-3.3-3.788-6.852-7.151-9.582-11.231a6.128,6.128,0,0,1-.6-5.129c1.3-5.359,2.584-10.727,4.084-16.031a35.577,35.577,0,0,0,.625-15.83c-.7-4.137-1.48-8.26-2.184-12.4-.043-.255.267-.569.412-.856Z" transform="translate(-227.615)" fill="#fff"/>
    <path id="Path_5" data-name="Path 5" d="M625.4,150.907a7.267,7.267,0,0,1-.491,1.725,40.322,40.322,0,0,0-4.561,12.917c-.927,4.462-1.725,8.955-3.442,13.22-2.222,5.518-5.678,10.184-9.483,14.709-3.7,4.4-7.066,9.079-10.393,13.768-2.1,2.957-1.956,6.329-.827,9.653.3.876.824,1.827,1.877,1.858a2.761,2.761,0,0,0,2.445-1.568,55.987,55.987,0,0,0,4.5-9.346c1.776-4.988,4.648-9.253,9.583-11.534a12.2,12.2,0,0,0,6.169-6.2c3.191-6.578,8.725-10.546,15.494-12.931a21.241,21.241,0,0,1,3.711-.967c-.379.538-.75,1.083-1.14,1.614-1.816,2.478-3.531,5.041-5.495,7.4a40.707,40.707,0,0,1-4.333,4.027,105.213,105.213,0,0,0-18.275,22.121c-3.753,5.864-7.349,11.829-11.046,17.729-1.287,2.054-2.668,4.05-4.008,6.071-.122.184-.258.358-.436.6l-13.341-15.3c.076-.161.137-.312.217-.453q6.442-11.413,12.887-22.823a18.445,18.445,0,0,1,4.97-5.7c7.5-5.687,11.974-13.346,14.444-22.294.352-1.274.644-2.566.928-3.858.929-4.222,3.283-7.628,6.17-10.71C622.7,153.389,623.994,152.254,625.4,150.907Z" transform="translate(-548.194 -270.777)" fill="#fff"/>
    <path id="Path_6" data-name="Path 6" d="M526.264,38.139c.341.469.7.929,1.022,1.407A18.659,18.659,0,0,1,530.81,51.4a22.914,22.914,0,0,1-3.521,10.558,28.257,28.257,0,0,0-3.673,8.494c-.492,2.249-.714,4.557-1.049,6.841a13.477,13.477,0,0,1-2.953,6.634c-4.817,5.944-7.47,12.862-9.067,20.245a7.217,7.217,0,0,0-.067,2.184c.066.682.155,1.512.988,1.694a2.239,2.239,0,0,0,2.516-.774c.961-1.421,1.924-2.851,2.738-4.358,1.016-1.881,1.83-3.871,2.825-5.765a20.113,20.113,0,0,1,8.195-8.545A15.687,15.687,0,0,0,535,80.739c.847-2.052,1.728-4.1,2.452-6.192a29.333,29.333,0,0,1,8.088-12.018c2.027-1.876,4.2-3.592,6.34-5.345a6.214,6.214,0,0,1,1.325-.643l.122.174c-.986,1.109-1.99,2.2-2.954,3.331A35.463,35.463,0,0,0,543,75.614,33.847,33.847,0,0,1,530.07,95.93c-3.358,2.5-5.514,5.988-7.542,9.565-3.779,6.669-7.586,13.322-11.421,20.052a4.88,4.88,0,0,1-.48-.413q-5.921-6.8-11.834-13.609c-1.253-1.445-1.346-2.419-.349-4.1,1.726-2.909,3.457-5.816,5.23-8.7,2.793-4.538,5.584-9.077,8.447-13.571a27.517,27.517,0,0,0,4.326-12.831A15.326,15.326,0,0,1,521.3,61.861a18.6,18.6,0,0,0,6-15.874c-.171-2.012-.627-4-.953-6l-.284-1.744Z" transform="translate(-478.308 -177.117)" fill="#fff"/>
    <path id="Path_7" data-name="Path 7" d="M168.956,604.555q3.635-1.971,7.27-3.941,19.048-10.272,38.1-20.53a47.669,47.669,0,0,1,14.2-5.26,24.447,24.447,0,0,1,8.582-.213,5.093,5.093,0,0,1,2.679,1.31c3.02,3.194,5.909,6.512,8.918,9.868-1.768.732-3.377,1.378-4.97,2.063A177.932,177.932,0,0,0,212.331,605.7c-7.727,5.388-15.311,10.981-22.96,16.482a1.668,1.668,0,0,1-.759.344c.456-.627.9-1.259,1.368-1.879,3.328-4.45,6.7-8.867,9.974-13.357a12.3,12.3,0,0,1,7.258-4.606,37.775,37.775,0,0,0,3.877-1.154,8.841,8.841,0,0,0,5.274-5.081,9.749,9.749,0,0,1,4.487-4.988c2.234-1.25,4.558-2.339,6.844-3.495.955-.483,1.934-.921,2.866-1.445,1.729-.974,2.247-2.2,1.58-3.574a3.393,3.393,0,0,0-4.293-1.845,7.062,7.062,0,0,0-.765.358,78.483,78.483,0,0,0-12.565,7.782c-3.192,2.527-6.935,3.653-10.773,4.641-2.342.6-4.673,1.27-6.964,2.043a10.155,10.155,0,0,0-2.869,1.563,19.358,19.358,0,0,1-11.425,4.066,23.86,23.86,0,0,0-5.007,1.082c-2.394.624-4.765,1.334-7.153,1.978a7.781,7.781,0,0,1-1.334.129Z" transform="translate(-205.21 -622.449)" fill="#fff"/>
    <path id="Path_8" data-name="Path 8" d="M167.546,492.871c-2.024,0-4.055-.105-6.072.021a34.179,34.179,0,0,0-14.2,4.007q-24.464,13.141-48.924,26.29c-.119.064-.243.12-.571.281.213-.4.321-.638.456-.857a21.207,21.207,0,0,1,8.657-7.992,26.7,26.7,0,0,0,7.7-5.7,37.733,37.733,0,0,1,11.9-8.082c5.783-2.727,11.616-5.348,17.365-8.143a25.1,25.1,0,0,0,4.27-2.99,4.168,4.168,0,0,0,1.1-1.569,1.685,1.685,0,0,0-1.147-2.46,6.11,6.11,0,0,0-1.581-.226,35.978,35.978,0,0,0-19.391,4.976,86.167,86.167,0,0,1-8.668,4.37,30.151,30.151,0,0,1-10.76,2.348,61.943,61.943,0,0,0-10.916,1.768A37.758,37.758,0,0,1,85.941,500c-.253-.016-.506-.03-.759-.056-.041,0-.077-.065-.178-.156.42-.2.812-.39,1.205-.576,3.641-1.72,7.262-3.484,10.931-5.144a35.551,35.551,0,0,1,10.768-2.708,31.682,31.682,0,0,0,15.016-5.451c4.2-2.976,8.967-4.54,13.9-5.7,3.37-.793,6.738-1.613,10.134-2.281,5.224-1.028,9.6.424,12.616,4.951a70.026,70.026,0,0,0,6.995,8.474c.36.391.707.794,1.06,1.191Z" transform="translate(-135.484 -542.128)" fill="#fff"/>
    <path id="Path_9" data-name="Path 9" d="M-.59,403.205c1.5-.154,3.01-.3,4.514-.462,4.174-.446,8.361-.8,12.515-1.381a22.958,22.958,0,0,0,7.752-2.789,13.455,13.455,0,0,1,8.13-1.755,11.525,11.525,0,0,1,2.556.53c5.765,2.064,11,.912,15.8-2.63A17.347,17.347,0,0,1,59.608,391c2.742-.218,5.514-.046,8.273-.046.028,0,.056.016.083.014,2.37-.183,3.891,1.091,5.317,2.819,2.586,3.134,5.331,6.135,8.008,9.193.124.142.234.3.423.539-2.537.541-4.978,1.044-7.411,1.583-4.59,1.017-9.208,1.929-13.747,3.141a22.862,22.862,0,0,0-6.165,2.676A55.828,55.828,0,0,1,35.313,418.4c-5.021.991-9.758,2.9-14.512,4.741-2.415.933-4.824,1.883-7.246,2.8-.193.073-.474-.089-.714-.141l-.076-.323c2.291-1.906,4.513-3.9,6.888-5.7a29.4,29.4,0,0,1,12.759-5.925c1.938-.331,3.925-.367,5.881-.6a10.321,10.321,0,0,0,6.549-3.044c3.248-3.519,7.37-5.224,11.85-6.446a80.638,80.638,0,0,0,7.8-2.724c.608-.235,1.409-.886,1.467-1.417.088-.8-.693-1.425-1.475-1.776a9.332,9.332,0,0,0-7.49-.24,43.49,43.49,0,0,0-6.864,3.4,25.931,25.931,0,0,1-9.323,3.781,10.969,10.969,0,0,1-3.651-.364,26.113,26.113,0,0,0-11.381.778c-2.585.68-5.128,1.554-7.743,2.076A24.233,24.233,0,0,1,2.8,405.159c-1.166-.54-2.293-1.165-3.438-1.751Z" transform="translate(-64.351 -470.098)" fill="#fff"/>
    <path id="Path_10" data-name="Path 10" d="M460.815-12.252h.924c.952,4.618,2.077,9.185.412,13.853a15.855,15.855,0,0,1-3.928,6.349,19.479,19.479,0,0,0-6.344,13.667,22.076,22.076,0,0,1-3.709,10.576c-3.247,5.186-6.545,10.34-9.809,15.515-1.67,2.647-3.313,5.311-4.969,7.966-.146.235-.3.464-.5.767-1.627-1.841-3.224-3.625-4.794-5.433-1.925-2.216-3.8-4.472-5.752-6.667a1.956,1.956,0,0,1-.409-2.1,6.634,6.634,0,0,1,.62-1.38c1.139-1.848,2.214-3.745,3.484-5.5a45.449,45.449,0,0,0,7.362-16.392c2.013-8.507,5.009-16.713,7.465-25.083.918-3.128,1.718-6.3,2.328-9.5.431-2.26.45-4.6.654-6.9.047-.532.1-1.064.164-1.766a6.574,6.574,0,0,1,.349.588,25.85,25.85,0,0,1,2.291,8.869,20.336,20.336,0,0,1-2.43,9.991,22.633,22.633,0,0,0-2.275,6.509,14.372,14.372,0,0,0,.427,6.446,11.021,11.021,0,0,1-1.46,9.6c-1.533,2.461-3.044,4.943-4.408,7.5a22.2,22.2,0,0,0-2.058,6.844,14,14,0,0,1-1.433,3.472c-.3.631-.8,1.166-1.116,1.791a2.731,2.731,0,0,0,1.087,3.737,2.792,2.792,0,0,0,3.843-.221,16.747,16.747,0,0,0,4.482-7.639c.759-3.174,1.353-6.411,2.416-9.484,1.682-4.863,3.643-9.634,5.586-14.4a11.348,11.348,0,0,1,6.715-6.423c2.93-1.139,4.134-2.967,4.258-6.13C460.406-6.225,460.633-9.2,460.815-12.252Z" transform="translate(-415.213 -125.27)" fill="#fff"/>
    <path id="Path_11" data-name="Path 11" d="M-30.728,319.99a7.589,7.589,0,0,1,3.194-2.217,71.936,71.936,0,0,1,10.672-2.866,21.524,21.524,0,0,0,8.636-3.7,9.529,9.529,0,0,1,5.121-2.025,16.285,16.285,0,0,1,5,.516c6.083,1.865,11.813.983,17.346-1.86a51.4,51.4,0,0,0,4.446-2.607,6.591,6.591,0,0,0,1.611-1.588c.675-.9.559-1.527-.29-2.289a7.229,7.229,0,0,0-4-1.643,17.463,17.463,0,0,0-7.8,1.115A54.916,54.916,0,0,1-4.925,303.6c-1.1-.025-2.2-.081-3.3-.158a2.231,2.231,0,0,1-.964-.268c-2.921-1.754-6.114-1.852-9.349-1.476-3.955.46-7.883.687-11.682-.811-1.331-.525-2.6-1.2-3.879-1.857-.589-.3-1.119-.723-1.852-1.207.365-.031.518-.059.67-.054,9.544.3,19.082.068,28.613-.4a110.767,110.767,0,0,0,11.292-.917c3.493-.532,6.91-1.57,10.354-2.412a23.242,23.242,0,0,1,9.547-.608,9.671,9.671,0,0,1,6.5,4.056,102.912,102.912,0,0,0,8.227,9.771,4.73,4.73,0,0,1,.9,1.326c-1.357-.138-2.714-.267-4.069-.417a21.636,21.636,0,0,0-11.9,2.189,37.817,37.817,0,0,0-5.8,3.282,11.039,11.039,0,0,1-9.932,1.763,26.955,26.955,0,0,0-8.286-.955,8.442,8.442,0,0,0-3.8.983,33.76,33.76,0,0,1-13.278,3.927c-4.574.412-9.167.619-13.751.917Z" transform="translate(-35.024 -388.942)" fill="#fff"/>
    <path id="Path_12" data-name="Path 12" d="M374.469-68.906c-.142,2.183-.307,4.364-.423,6.548-.324,6.1-2.5,11.766-4.156,17.547-2.213,7.71-4.512,15.4-6.794,23.086a55.513,55.513,0,0,1-6.822,13.918c-1.362,2.138-2.753,4.256-4.2,6.487L339.7-15.618c.654-.681,1.3-1.338,1.926-2.007,1.488-1.583,3.065-3.094,4.436-4.773A16.081,16.081,0,0,0,349.7-34.307a19.19,19.19,0,0,1,3.848-13.6A27.758,27.758,0,0,0,358.7-60.964c.73-4.9,1.263-9.839,1.884-14.76a1.176,1.176,0,0,1,.313-.693,2.5,2.5,0,0,1,.338.612,57.881,57.881,0,0,1,1.534,16.955,18.176,18.176,0,0,1-2.913,9.138A25.738,25.738,0,0,0,355.436-39.2a21.254,21.254,0,0,0-.2,4.717,22.3,22.3,0,0,1-2.512,12.419,7.67,7.67,0,0,0-1.141,5.252c.226,1.123.422,1.312,1.562,1.307a3.73,3.73,0,0,0,2.61-1.008,11.907,11.907,0,0,0,4.158-9.352q-.063-4.022-.185-8.042a6.92,6.92,0,0,1,2.693-5.919,10.164,10.164,0,0,0,3.957-10.013,11.181,11.181,0,0,1,3.487-10.141,12.463,12.463,0,0,0,2.742-4.615c.463-1.179.9-2.367,1.363-3.548.106-.274.243-.536.366-.8Z" transform="translate(-347.026 -81.972)" fill="#fff"/>
    <path id="Path_13" data-name="Path 13" d="M277.683-34.125c-1.859-2.13-3.586-4.1-5.3-6.083-1.572-1.812-3.074-3.69-4.72-5.433a4.57,4.57,0,0,1-1.324-4.2c.5-3.187,1-6.356,2.59-9.216a15.305,15.305,0,0,1,2.05-2.989A12.9,12.9,0,0,0,274-69.431c.309-2.227.235-4.5.966-6.677a6.722,6.722,0,0,1,2.327-3.416,14.8,14.8,0,0,0,5.677-10.664c.254-2.286.315-4.594.477-7.105.344.674.666,1.186.878,1.739a19.151,19.151,0,0,1,.14,13.878A8.789,8.789,0,0,1,283.04-79.2a22.687,22.687,0,0,0-4.8,11.644c-.576,4.275-1.543,8.4-3.99,12.086a8.324,8.324,0,0,0-1.293,4.839,3.059,3.059,0,0,0,2.964,3.181c3.39.348,5.956-1.463,6.511-4.816a29.911,29.911,0,0,0,.329-5.47c-.073-3.582.567-6.912,2.954-9.714a10.066,10.066,0,0,1,2.073-1.98,7.678,7.678,0,0,0,3.293-5.31,39.216,39.216,0,0,0,.639-5.619A17.749,17.749,0,0,1,296.5-91.38c.347-.4.709-.781,1.065-1.171l.3.053c0,1.674.083,3.354-.015,5.022A46.779,46.779,0,0,1,292.829-68.5a39.327,39.327,0,0,1-2.577,4.166,16.627,16.627,0,0,0-2.88,8.711c-.152,2.785-.179,5.586-.513,8.349a14.765,14.765,0,0,1-4.266,8.561C281.067-37.136,279.388-35.708,277.683-34.125Z" transform="translate(-286.025 -64.632)" fill="#fff"/>
    <path id="Path_14" data-name="Path 14" d="M18.5,204.775c-1.523-.116-2.869-.289-4.218-.31A41.984,41.984,0,0,0,2.7,206.219a68.479,68.479,0,0,1-12.826,2.55c-2.785.2-5.58.377-8.371.387-5.759.02-11.519-.043-17.278-.148-2.109-.038-4.214-.292-6.32-.448l-.01-.218c1.262-.212,2.533-.378,3.783-.644a60.442,60.442,0,0,0,11.157-3.31,9.92,9.92,0,0,1,8.027-.182,10.136,10.136,0,0,0,8.45-.484c3.721-1.778,7.722-2.419,11.735-3,2.095-.3,4.22-.4,6.052-1.639.137-.092.279-.176.42-.264-.762-2.345-1.812-4.383-4.453-4.977a8.281,8.281,0,0,0-4.5.346c-3.551,1.188-7.08,2.44-10.631,3.626-8.623,2.88-16.962,1.812-25.066-1.935-2.272-1.051-4.462-2.284-6.668-3.475a2.245,2.245,0,0,1-1.431-1.632c1.72.249,3.348.482,4.976.72,4.74.692,9.466,1.518,14.225,2.042A32.05,32.05,0,0,0-12.445,191.8a103.733,103.733,0,0,1,13.9-3.875A3.411,3.411,0,0,1,5,189.093c4.33,5.063,8.7,10.09,13.057,15.131C18.178,204.367,18.293,204.519,18.5,204.775Z" transform="translate(-27.316 -301.451)" fill="#fff"/>
    <path id="Path_15" data-name="Path 15" d="M357.6,663.48c-2.372-.79-4.727-1.633-7.118-2.36-6.4-1.945-11.568-.377-15.812,4.75-1.865,2.253-4.03,4.036-7.023,4.5a12.624,12.624,0,0,1-2.361.117,6.864,6.864,0,0,0-6.2,3.136,8.774,8.774,0,0,0-.779,1.3c-1.688,3.622-4.652,5.54-8.443,6.362-.633.137-1.273.239-1.909.361a9.967,9.967,0,0,0-3.952,1.607c-3.316,2.323-7.131,3.432-11.024,4.3-2.222.5-4.454.943-6.775,1.257.333-.271.652-.561,1-.81,10.211-7.3,20.372-14.663,30.658-21.854,5.881-4.111,12.419-7.093,18.839-10.256,2.426-1.2,4.831-2.437,7.273-3.6,2.241-1.067,3.113-.911,4.765.929,3.014,3.358,5.974,6.763,8.957,10.148Z" transform="translate(-302.595 -686.662)" fill="#fff"/>
    <path id="Path_16" data-name="Path 16" d="M-78.118,73.727l.566-.892c1.953.71,3.887,1.459,5.851,2.118,4.881,1.639,9.749,3.321,14.671,4.826a24.023,24.023,0,0,0,14.169-.073,37.668,37.668,0,0,0,3.706-1.123c2.289-.953,3.345-.749,4.959,1.167q3.082,3.658,6.19,7.293c.859,1.005,1.747,1.985,2.71,3.077l-2.242.733C-32.3,92.409-37.049,94-41.826,95.509a31.385,31.385,0,0,1-14.638.813c-4.589-.738-9.2-1.321-13.806-1.972-.112-.016-.256.017-.331-.041a5.785,5.785,0,0,1-.515-.5c.193-.142.385-.409.578-.409,3.923-.009,7.851-.1,11.768.057a32.835,32.835,0,0,0,12.693-1.905,42.275,42.275,0,0,1,6.752-1.4c1.217-.225,2.455-.339,3.681-.517A1.887,1.887,0,0,0-33.8,88.165a2.248,2.248,0,0,0-.994-2.5,8.172,8.172,0,0,0-2.544-.787,28.589,28.589,0,0,0-8.823.476A29.57,29.57,0,0,1-61.441,83.58a51.784,51.784,0,0,1-15.252-8.757C-77.145,74.451-77.621,74.108-78.118,73.727Z" transform="translate(0 -205.934)" fill="#fff"/>
    <path id="Path_17" data-name="Path 17" d="M15.554-150.359c.439,1.821.946,3.628,1.3,5.465,2.023,10.373.5,20.417-2.941,30.259a20.828,20.828,0,0,0-1.477,6.9,3.809,3.809,0,0,1-.13.623l-35.846-40.275.159-.23c.254.108.518.2.759.328a71.988,71.988,0,0,1,11.551,8.1A68.378,68.378,0,0,1,3.476-122.356a36.242,36.242,0,0,0,4.05,5.083c1.337,1.489,2.381,1.354,3.613-.216a8.846,8.846,0,0,0,1.588-8.38,21.582,21.582,0,0,1,.892-14.779,33.373,33.373,0,0,0,1.383-6.5c.192-1.046.243-2.117.359-3.177Z" transform="translate(-47.945 -7.858)" fill="#fff"/>
    <path id="Path_18" data-name="Path 18" d="M-67.663-96.444c4.339.767,8.658,1.372,12.759,3a39.3,39.3,0,0,0,4.947,1.4c1.928.484,3.817-.086,5.7-.387,3.058-.491,6.1-1.108,9.14-1.675.045-.008.082-.061.393-.305-.807-.7-1.553-1.416-2.364-2.046-2.806-2.182-5.648-4.316-8.45-6.5a45.566,45.566,0,0,1-10.994-13.076c-1.821-3.079-3.488-6.248-5.23-9.374a4.426,4.426,0,0,1-.3-3.132l33.852,37.782c-2.3.7-4.469,1.417-6.671,2.029a19.448,19.448,0,0,1-8.515.878,58.418,58.418,0,0,1-6.954-1.733C-55.852-91.247-61.321-93-66.8-94.707-68.144-95.127-68.056-94.872-67.663-96.444Z" transform="translate(-8.472 -38.676)" fill="#fff"/>
  </g>
</svg>
