<svg id="Layer_1" data-name="Layer 1" xmlns="http://www.w3.org/2000/svg" viewBox="0 0 411.55 411.55"><path d="M3412.24,445.75H3426a20.17,20.17,0,0,0,20.12-20.12v-.51h303.56v.51a20.17,20.17,0,0,0,20.12,20.12h13.76a20.18,20.18,0,0,0,20.12-20.12V411.88a20.2,20.2,0,0,0-10.13-17.46l-.17-.09-.06-.18-14.61-40.92.17-.22A82,82,0,0,0,3732,221.67l-.28-.06-35.37-99h11.59a61.56,61.56,0,0,0,61.38-61.38V54.32a20.13,20.13,0,0,0-40.25,0V61.2a21.18,21.18,0,0,1-21.13,21.13h-48.13a20.12,20.12,0,0,0-5,39.63l.26.07,13.25,37.1-.25.22-109.28,98.87h-.21l-63.46-4c-.5,0-1,0-1.55,0l-.75,0-.13-.33-29.88-76.37H3481a20.17,20.17,0,0,0,20.12-20.12v-1.82a20.1,20.1,0,0,0-17.28-19.92l-68.75-9.82A20.15,20.15,0,0,0,3392.32,143a20.86,20.86,0,0,0-.2,2.84v11.65a20.17,20.17,0,0,0,20.12,20.12h9.4l.13.33,36.53,93.34-.19.23a47.59,47.59,0,0,0,6.17,66.95c.87.72,1.77,1.42,2.69,2.07l.51.37-56.28,50.91-.18,0a20.17,20.17,0,0,0-18.9,20.08v13.75A20.17,20.17,0,0,0,3412.24,445.75Zm341.7-46.24a20.14,20.14,0,0,0-4.27,12.37v.5H3448.6l66-60.61,7.6,14-6.49,3.52a6.37,6.37,0,0,0,1.11,11.72,6.3,6.3,0,0,0,4.85-.46l.35.39h0l-.24-.45,24.18-13.11a6.37,6.37,0,1,0-6-11.25l-6.6,3.57-6.63-12.22,115.61-7.23.15.29a81.84,81.84,0,0,0,103.37,37.2l.5-.2,7.76,21.73Zm-97.37-60.13,58.41-3.65a34,34,0,0,0,14.62-3.41l.51-.25,12,33.47-.44.19a69.34,69.34,0,0,1-84.58-25.61Zm134.36,72.5v13.75a7.41,7.41,0,0,1-7.38,7.38h-13.76a7.4,7.4,0,0,1-7.38-7.38V411.88a7.41,7.41,0,0,1,7.38-7.39h13.76A7.42,7.42,0,0,1,3790.93,411.88Zm-53-175.32a69.51,69.51,0,0,1,29.44,20.18h0a69.13,69.13,0,0,1,6.7,81l-.55.91L3736.9,236.2Zm41,155.2h-9.14a20.54,20.54,0,0,0-4.21.44l-.43.1-96.34-269.72h14l.12.33ZM3657,263.6a69.69,69.69,0,0,1,38.05-28.16l.46-.14L3707,267.49l-50.48-3.16Zm-14.56-.44-.15.28-29.63-1.85,69.44-63.82,9.12,25.52-.51.15A81.92,81.92,0,0,0,3642.48,263.16Zm17.3-153.32a7.39,7.39,0,1,1,0-14.77h48.13a34,34,0,0,0,33.87-33.87V54.32a7.39,7.39,0,0,1,14.77,0V61.2a48.77,48.77,0,0,1-48.64,48.64Zm13.2,62.27,4.51,12.64-.25.22-82.17,75.52-18.5-1.16Zm-260.74-7.26a7.4,7.4,0,0,1-7.38-7.39V145.81a7.39,7.39,0,0,1,7.34-7.38,7.62,7.62,0,0,1,1.08.08l68.76,9.82a7.37,7.37,0,0,1,6.34,7.31v1.82a7.4,7.4,0,0,1-7.38,7.39Zm23.08,12.73h13.83l.12.33,30.78,78.66-.5.17a47.55,47.55,0,0,0-10.6,5.12l-.52.34-.22-.58Zm24.54,124.28h0A35,35,0,0,1,3494.54,267l217.17,13.57.11.32,13.94,39.05-.36.21a21.19,21.19,0,0,1-10.62,2.88,2.47,2.47,0,0,0-.38,0L3520,335.16l-10.59-19.56.23-.27a20.08,20.08,0,1,0-11.78,6.4l.35-.05L3506,336l-11.45.72A35,35,0,0,1,3459.86,301.86Zm42.27,0a7.39,7.39,0,0,1-7.38,7.38h0a7.38,7.38,0,1,1,7.38-7.38ZM3479.66,347l.28.1a47.46,47.46,0,0,0,14.81,2.37,2.3,2.3,0,0,0,.38,0l3.33-.2-55.83,51.3-.33-.46a20.18,20.18,0,0,0-11.54-7.78l-.93-.23Zm-74.8,64.86a7.4,7.4,0,0,1,7.38-7.39H3426a7.4,7.4,0,0,1,7.38,7.39v13.75A7.39,7.39,0,0,1,3426,433h-13.75a7.39,7.39,0,0,1-7.38-7.38Z" transform="translate(-3392.12 -34.2)"/></svg>