<svg id="Layer_1" data-name="Layer 1" xmlns="http://www.w3.org/2000/svg" viewBox="0 0 492.78 409.42"><path d="M3120.56,251.12a54.72,54.72,0,0,0-43.64-53.43l-2.75-.56V88.76a54.61,54.61,0,0,0-54.55-54.54H2728.71a54.6,54.6,0,0,0-54.54,54.54V197.13l-2.76.56a54.7,54.7,0,0,0-43.63,53.43V435.48a8.16,8.16,0,1,0,16.31,0V375.25h460.16v60.23a8.16,8.16,0,1,0,16.31,0ZM2690.47,88.76a38.28,38.28,0,0,1,38.24-38.23h290.91a38.28,38.28,0,0,1,38.24,38.23V196.58h-23.24l1.64-4.6a31.18,31.18,0,0,0,1.06-18l-11.6-46.39a31.28,31.28,0,0,0-30.41-23.74h-74.66a31.39,31.39,0,0,0-31.35,31.35v46.39a30.78,30.78,0,0,0,1.94,10.44l1.64,4.6h-33.43l1.64-4.6a30.58,30.58,0,0,0,1.94-10.44V135.15a31.38,31.38,0,0,0-31.35-31.35H2757a31.3,31.3,0,0,0-30.41,23.74L2715,173.93a31.1,31.1,0,0,0,1.07,18l1.64,4.6h-27.25Zm328.3,102a15,15,0,0,1-11.86,5.78h-86.26a15.06,15.06,0,0,1-15-15V135.15a15.05,15.05,0,0,1,15-15h74.66a15,15,0,0,1,14.59,11.39l11.6,46.4A14.84,14.84,0,0,1,3018.77,190.8ZM2846.7,135.13v46.38a15.06,15.06,0,0,1-15,15.05H2745.4a15,15,0,0,1-14.59-18.7l11.59-46.38A15.14,15.14,0,0,1,2757,120.09h74.68A15.05,15.05,0,0,1,2846.7,135.13Zm257.55,223.81H2644.08V328.86h460.17Zm0-46.39H2644.08V251.12a38.28,38.28,0,0,1,38.24-38.23H3066a38.28,38.28,0,0,1,38.24,38.23Z" transform="translate(-2627.78 -34.22)"/></svg>