<svg id="Layer_1" data-name="Layer 1" xmlns="http://www.w3.org/2000/svg" viewBox="0 0 408 408.01"><path d="M4186.57,219.51a6.8,6.8,0,0,0,3.72,13.09h0a42.73,42.73,0,0,1,11.74-1.7c18.22,0,35.49,9.36,44,23.85a6.8,6.8,0,0,0,11.73-6.89C4246.69,229,4225.33,217.3,4202,217.3A56.91,56.91,0,0,0,4186.57,219.51Z" transform="translate(-4004.82 -33.7)"/><path d="M4406,271.7h-.68a33.89,33.89,0,0,0-6.12-13.57V115.3a54.4,54.4,0,0,0-108.8,0V239.42a40.83,40.83,0,0,0-4.53,4c-8.26-19.21-23.81-34.76-43.07-44V157.76L4272,149a6.8,6.8,0,0,0,4.56-8.47l-.06-.2-34-102h0a6.78,6.78,0,0,0-10.52-3.3,38.73,38.73,0,0,1-46.24,0,6.74,6.74,0,0,0-4.08-1.34v0H4100v0a6.72,6.72,0,0,0-4.08,1.34,38.73,38.73,0,0,1-46.24,0,6.77,6.77,0,0,0-10.52,3.3h0l-34,102a6.8,6.8,0,0,0,4.3,8.61l.19.06,29.16,8.74v66.38A68,68,0,0,0,4012,271.7h-.34a6.8,6.8,0,0,0-6.8,6.8v27.2a6.79,6.79,0,0,0,6.8,6.8h3l10.62,95.6a34,34,0,0,0,34,33.6h299.2a34,34,0,0,0,34-33.6l10.62-95.6h3a6.8,6.8,0,0,0,6.8-6.8V278.5A6.81,6.81,0,0,0,4406,271.7Zm-6.8,27.2h-217.5c0-8.72-.08-12.15-.16-13.6h217.66ZM4304,115.3a40.8,40.8,0,1,1,81.6,0V247.35a33.88,33.88,0,0,0-13.6-2.85,41.64,41.64,0,0,0-18.46,4.12c-8.66-11.48-21.19-17.72-35.94-17.72a50,50,0,0,0-13.6,1.8Zm-27,144.37a6.8,6.8,0,0,0,12.65,1.58c5.8-11.11,15.21-16.75,28-16.75,15.44,0,23.78,9.19,28.05,16.9A6.8,6.8,0,0,0,4356.3,263c3.12-3,9.44-4.94,15.73-4.94a20.45,20.45,0,0,1,19.23,13.6H4177.63c-7.53-16.22-23.64-26.84-42.73-27.18,13.6-24.54,40.15-40.82,67.13-40.82C4237.81,203.7,4269.34,227.24,4277,259.67Zm-153.87,63.69c-16-7.16-23.11-16.8-23.11-31.26,0-18.11,15.85-34,33.93-34,17.21,0,31.18,11.55,34.06,28.11.21,3.43.08,30.27-.06,46.69a20.41,20.41,0,0,1-20.4,20.4,6.81,6.81,0,0,0-6.8,6.8v20.4a6.8,6.8,0,0,1-13.6,0V329.56A6.78,6.78,0,0,0,4123.14,323.36Zm119.69-179.8V82.41l18.53,55.6ZM4174.38,47.3c-1.23,11-5,27.67-11.05,43.42-8.87,23.17-17.67,31.38-22.5,31.38s-13.63-8.21-22.5-31.38c-6-15.75-9.82-32.43-11.06-43.42ZM4020.3,138l18.53-55.59v61.15Zm32.13-85.81a52.58,52.58,0,0,0,41.69-.39,213,213,0,0,0,11.51,43.78c10.19,26.63,22,40.12,35.2,40.12s25-13.49,35.2-40.12a213,213,0,0,0,11.5-43.78,52.6,52.6,0,0,0,41.7.39V194.11a94.28,94.28,0,0,0-27.2-4c-29.81,0-59.13,16.74-75.82,42.5-13.26-14.32-29.51-22.1-46.58-22.1a67.69,67.69,0,0,0-27.2,5.7Zm27.2,171.91c19.56,0,33.41,13.31,40.65,22.51A48.28,48.28,0,0,0,4100.37,259a50.2,50.2,0,0,0-9,12.73h-38a27.25,27.25,0,0,1,26.34-20.4,6.8,6.8,0,0,0,0-13.6,40.87,40.87,0,0,0-40.23,34h-13.73A54.47,54.47,0,0,1,4079.63,224.1Zm7.22,74.8h-68.42V285.3H4087a44.31,44.31,0,0,0-.53,6.8A53.17,53.17,0,0,0,4086.85,298.9Zm162.78,108.8v20.4H4236V407.7Zm13.6,0h13.6v20.4h-13.6Zm27.2,0H4304v20.4h-13.6Zm27.2,0h13.6v20.4h-13.6Zm20.4-13.6H4202V380.5h136Zm-115.6,13.6v20.4h-13.6V407.7Zm156.44-.75a6.28,6.28,0,0,0,0,.75,20.42,20.42,0,0,1-20.4,20.4h-13.6V407.7a6.8,6.8,0,0,0,6.8-6.8V373.7a6.81,6.81,0,0,0-6.8-6.8h-149.6a6.8,6.8,0,0,0-6.8,6.8v27.2a6.79,6.79,0,0,0,6.8,6.8v20.4h-136a20.41,20.41,0,0,1-20.4-20.4c0-.25,0-.5,0-.75l-10.5-94.45h62.6c4.34,8.72,11.86,15.79,22.67,21.34V380.5a20.4,20.4,0,0,0,40.8,0V366.22a34,34,0,0,0,27.2-33.26c.07-8.1.11-14.84.14-20.45h207.67Z" transform="translate(-4004.82 -33.7)"/><path d="M4344.83,135.7c15.25,0,27.2-9,27.2-20.4s-11.95-20.4-27.2-20.4-27.2,9-27.2,20.4S4329.57,135.7,4344.83,135.7Zm0-27.2c8.3,0,13.6,4,13.6,6.8s-5.3,6.8-13.6,6.8-13.6-4-13.6-6.8S4336.53,108.5,4344.83,108.5Z" transform="translate(-4004.82 -33.7)"/><path d="M4324.43,162.9h40.8a6.8,6.8,0,1,0,0-13.6h-40.8a6.8,6.8,0,0,0,0,13.6Z" transform="translate(-4004.82 -33.7)"/><path d="M4324.43,190.1h40.8a6.8,6.8,0,1,0,0-13.6h-40.8a6.8,6.8,0,0,0,0,13.6Z" transform="translate(-4004.82 -33.7)"/><path d="M4324.43,217.3h40.8a6.8,6.8,0,1,0,0-13.6h-40.8a6.8,6.8,0,0,0,0,13.6Z" transform="translate(-4004.82 -33.7)"/><path d="M4134.13,285.3a6.8,6.8,0,1,0,0-13.6,20.43,20.43,0,0,0-20.4,20.4,6.8,6.8,0,0,0,13.6,0A6.81,6.81,0,0,1,4134.13,285.3Z" transform="translate(-4004.82 -33.7)"/></svg>