<?xml version="1.0" encoding="utf-8"?>
<!-- Generator: Adobe Illustrator 25.0.0, SVG Export Plug-In . SVG Version: 6.00 Build 0)  -->
<svg version="1.1" id="Layer_1" xmlns="http://www.w3.org/2000/svg" xmlns:xlink="http://www.w3.org/1999/xlink" x="0px" y="0px"
	 viewBox="0 0 512 490" style="enable-background:new 0 0 512 490;" xml:space="preserve">
<style type="text/css">
	.st0{fill:#E04312;}
</style>
<path class="st0" d="M475.5,261.8L475.5,261.8l-93.2-121.5c-1.1-1.5-2.9-2.3-4.8-2.3H134.5c-1.9,0-3.6,0.9-4.8,2.3L36.5,261.8l0,0
	c-1.9,2.4-1.6,5.8,0.5,7.9l214.7,214.7c2.3,2.3,6.1,2.3,8.5,0c0,0,0,0,0,0L475,269.6C477.1,267.5,477.3,264.1,475.5,261.8
	L475.5,261.8z M370.2,149.9L350,251.6l-81.5-101.7H370.2z M340.9,259.4H171.1L256,153.5L340.9,259.4z M243.5,149.9L162,251.6
	l-20.2-101.7H243.5z M131.2,158.1l20.1,101.3H53.4L131.2,158.1z M55.7,271.4h99l82.2,181.2L55.7,271.4z M256,465.6l-88.1-194.2
	h176.2L256,465.6z M275.1,452.6l82.2-181.2h99L275.1,452.6z M360.7,259.4l20.1-101.3l77.7,101.3H360.7z"/>
<path class="st0" d="M139.9,75l31.7,4.6l14.2,28.7c1.5,3,5.1,4.2,8,2.7c1.2-0.6,2.1-1.5,2.7-2.7l14.2-28.7l31.7-4.6
	c3.3-0.5,5.6-3.5,5.1-6.8c-0.2-1.3-0.8-2.5-1.7-3.4l-22.9-22.4l5.4-31.6c0.6-3.3-1.6-6.4-4.9-6.9c-1.3-0.2-2.6,0-3.8,0.6l-28.4,14.9
	L162.8,4.5c-2.9-1.5-6.6-0.4-8.1,2.5c-0.6,1.2-0.8,2.5-0.6,3.8l5.4,31.6l-22.9,22.4c-2.4,2.3-2.4,6.1-0.1,8.5
	C137.4,74.2,138.6,74.9,139.9,75z M170.1,48.8c1.4-1.4,2.1-3.4,1.7-5.3l-3.9-22.7l20.4,10.7c1.7,0.9,3.8,0.9,5.6,0l20.4-10.7
	l-3.9,22.7c-0.3,1.9,0.3,3.9,1.7,5.3l16.5,16.1l-22.8,3.3c-2,0.3-3.6,1.5-4.5,3.3l-10.2,20.7l-10.2-20.7c-0.9-1.8-2.6-3-4.5-3.3
	l-22.8-3.3L170.1,48.8z"/>
<path class="st0" d="M56,159.3c1,2,3.1,3.3,5.4,3.3l0,0c2.3,0,4.4-1.3,5.4-3.3L81,130.6l31.7-4.6c3.3-0.5,5.6-3.5,5.1-6.8
	c-0.2-1.3-0.8-2.5-1.7-3.4L93.1,93.3l5.4-31.6c0.6-3.3-1.6-6.4-4.9-6.9c-1.3-0.2-2.6,0-3.8,0.6L61.4,70.4L33,55.4
	c-2.9-1.5-6.6-0.4-8.1,2.5c-0.6,1.2-0.8,2.5-0.6,3.8l5.4,31.6L6.8,115.7c-2.4,2.3-2.4,6.1-0.1,8.5c0.9,0.9,2.1,1.6,3.4,1.7l31.7,4.6
	L56,159.3z M40.4,99.7c1.4-1.4,2.1-3.4,1.7-5.3l-3.9-22.7l20.4,10.7c1.7,0.9,3.8,0.9,5.6,0l20.4-10.7l-3.9,22.7
	c-0.3,1.9,0.3,3.9,1.7,5.3l16.5,16.1l-22.8,3.3c-2,0.3-3.6,1.5-4.5,3.3l-10.2,20.7l-10.2-20.7c-0.9-1.8-2.6-3-4.5-3.3l-22.8-3.3
	L40.4,99.7z"/>
<path class="st0" d="M269.6,75l31.7,4.6l14.2,28.7c1.5,3,5.1,4.2,8,2.7c1.2-0.6,2.1-1.5,2.7-2.7l14.2-28.7l31.7-4.6
	c3.3-0.5,5.6-3.5,5.1-6.8c-0.2-1.3-0.8-2.5-1.7-3.4l-22.9-22.4l5.4-31.6c0.6-3.3-1.6-6.4-4.9-6.9c-1.3-0.2-2.6,0-3.8,0.6l-28.4,14.9
	L292.5,4.5c-2.9-1.5-6.6-0.4-8.1,2.5c-0.6,1.2-0.8,2.5-0.6,3.8l5.4,31.6l-22.9,22.4c-2.4,2.3-2.4,6.1-0.1,8.5
	C267.1,74.2,268.3,74.9,269.6,75L269.6,75z M299.8,48.8c1.4-1.4,2.1-3.4,1.7-5.3l-3.9-22.7l20.4,10.7c1.7,0.9,3.8,0.9,5.6,0
	L344,20.8l-3.9,22.7c-0.3,1.9,0.3,3.9,1.7,5.3l16.5,16.1l-22.8,3.3c-2,0.3-3.6,1.5-4.5,3.3l-10.2,20.7l-10.2-20.7
	c-0.9-1.8-2.6-3-4.5-3.3l-22.8-3.3L299.8,48.8z"/>
<path class="st0" d="M482.2,93.3l5.4-31.6c0.6-3.3-1.6-6.4-4.9-6.9c-1.3-0.2-2.6,0-3.8,0.6l-28.4,14.9l-28.4-14.9
	c-2.9-1.5-6.6-0.4-8.1,2.5c-0.6,1.2-0.8,2.5-0.6,3.8l5.4,31.6L396,115.7c-2.4,2.3-2.4,6.1-0.1,8.5c0.9,0.9,2.1,1.6,3.4,1.7l31.7,4.6
	l14.2,28.7c1.5,3,5.1,4.2,8,2.7c1.2-0.6,2.1-1.5,2.7-2.7l14.2-28.7l31.7-4.6c3.3-0.5,5.6-3.5,5.1-6.8c-0.2-1.3-0.8-2.5-1.7-3.4
	L482.2,93.3z M465.3,119.1c-2,0.3-3.6,1.5-4.5,3.3l-10.2,20.7l-10.2-20.7c-0.9-1.8-2.6-3-4.5-3.3l-22.8-3.3l16.5-16.1
	c1.4-1.4,2.1-3.4,1.7-5.3l-3.9-22.7l20.4,10.7c1.7,0.9,3.8,0.9,5.6,0l20.4-10.7l-3.9,22.7c-0.3,1.9,0.3,3.9,1.7,5.3l16.5,16.1
	L465.3,119.1z"/>
</svg>
