<?xml version="1.0" encoding="utf-8"?>
<!-- Generator: Adobe Illustrator 25.0.0, SVG Export Plug-In . SVG Version: 6.00 Build 0)  -->
<svg version="1.1" id="Capa_1" xmlns="http://www.w3.org/2000/svg" xmlns:xlink="http://www.w3.org/1999/xlink" x="0px" y="0px"
	 viewBox="0 0 512 450" style="enable-background:new 0 0 512 450;" xml:space="preserve">
<style type="text/css">
	.st0{fill:#558E6D;}
</style>
<path class="st0" d="M406,0H286c-58,0-105,47-105,105c0,52.2,38.3,96.5,90,104V255c0,8.3,6.7,15,15,15c4,0,7.8-1.6,10.6-4.4
	l55.6-55.6H406c57.9,0,106-47.1,106-105S463.9,0,406,0z M286,120c-8.3,0-15-6.7-15-15s6.7-15,15-15s15,6.7,15,15S294.3,120,286,120
	L286,120z M346,120c-8.3,0-15-6.7-15-15s6.7-15,15-15s15,6.7,15,15S354.3,120,346,120L346,120z M406,120c-8.3,0-15-6.7-15-15
	s6.7-15,15-15s15,6.7,15,15S414.3,120,406,120L406,120z"/>
<path class="st0" d="M337,450c24.8,0,45-20.2,45-45v-60c0-6.5-4.1-12.2-10.2-14.2l-89.8-30c-4.4-1.5-9.2-0.8-13.1,1.7L230.7,328
	c-40.4-19.3-88.4-67.3-107.7-107.7l25.4-38.2c2.6-3.9,3.3-8.7,1.8-13.1l-30-89.8C118.2,73.1,112.4,69,106,69H45
	C20.2,68.9,0.1,89,0,113.8c0,0,0,0,0,0C0,286.6,164.2,450,337,450z"/>
</svg>
