<svg id="Layer_1" data-name="Layer 1" xmlns="http://www.w3.org/2000/svg" viewBox="0 0 409.5 409.5"><defs><style>.cls-1{stroke:#000;stroke-miterlimit:10;stroke-width:0.75px;}</style></defs><path class="cls-1" d="M3592.52,140.06h36.67a18.9,18.9,0,0,0,5-37.13,22.6,22.6,0,0,0-21.44-15.81,22.13,22.13,0,0,0-3.81.35,21.6,21.6,0,0,0-29.9,6.26,21.94,21.94,0,0,0-2.51,5.29,23.64,23.64,0,0,0,16,41Zm-7-32.89a6,6,0,0,0,2.25-3.58,9.56,9.56,0,0,1,15.78-5.14,6,6,0,0,0,5.93,1.24,10.4,10.4,0,0,1,13.14,6.57,11,11,0,0,1,.5,2.49,6,6,0,0,0,6.24,5.55,6.85,6.85,0,1,1-.17,13.7h-36.67a11.59,11.59,0,0,1-7-20.82Z" transform="translate(-3326.94 -32.89)"/><path d="M3430.29,169.39a52.16,52.16,0,1,0,52.16,52.16A52.22,52.22,0,0,0,3430.29,169.39Zm0,89.81A37.66,37.66,0,1,1,3468,221.55,37.69,37.69,0,0,1,3430.29,259.2Z" transform="translate(-3326.94 -32.89)"/><circle cx="285.22" cy="216.82" r="8.05"/><path d="M3612.16,258a8.3,8.3,0,1,1,8.3-8.3A8.31,8.31,0,0,1,3612.16,258Zm0-16.09a7.8,7.8,0,1,0,7.8,7.79A7.79,7.79,0,0,0,3612.16,241.92Z" transform="translate(-3326.94 -32.89)"/><path d="M3729.65,428.81h-25.4V405.37h25.4a6.8,6.8,0,0,0,6.79-6.79V350.3a6.8,6.8,0,0,0-6.79-6.79h-35a29.9,29.9,0,0,1-29-22.67,139.52,139.52,0,0,0-22.95-49,6.82,6.82,0,0,0-4.45-2.7,6.72,6.72,0,0,0-5,1.24,6.79,6.79,0,0,0-1.46,9.49,126,126,0,0,1,20.73,44.23,43.46,43.46,0,0,0,42.2,32.95h28.25V391.8h-28.25a78.07,78.07,0,0,1-75.86-59.24,91.64,91.64,0,0,0-89-69.52h-12.15V228.33h12.15a126.15,126.15,0,0,1,48.47,9.61,6.79,6.79,0,0,0,8.86-3.68,6.68,6.68,0,0,0,0-5.19,6.76,6.76,0,0,0-3.67-3.68,139.71,139.71,0,0,0-53.66-10.63h-12.15v-66.9h9.3a6.79,6.79,0,0,0,4.92-11.47L3435.21,35a6.78,6.78,0,0,0-9.83,0l-96.57,101.39a6.79,6.79,0,0,0,4.92,11.47h9.3V435.6a6.8,6.8,0,0,0,6.79,6.79H3382a6.79,6.79,0,0,0,6.79-6.79V405.37h83V435.6a6.79,6.79,0,0,0,6.79,6.79h32.19a6.8,6.8,0,0,0,6.79-6.79v-159h12.15a78.1,78.1,0,0,1,75.87,59.23,91.27,91.27,0,0,0,83.9,69.36l1.19.07v23.53h-25.4a6.79,6.79,0,1,0,0,13.58h64.38a6.79,6.79,0,0,0,0-13.58ZM3430.29,62.12l22.92,72.16h-45.83Zm-80.72,72.16,65.35-68.62-21.78,68.62Zm25.65,294.53h-18.61v-120h18.61Zm96.57-37h-83V373.18h83Zm0-32.19h-83V341h83Zm0-32.19h-83V308.81h83ZM3504,428.81h-18.61v-120H3504Zm0-133.58H3356.61V147.86H3504Zm-36.53-161-.28-.87-21.5-67.75L3511,134.28Z" transform="translate(-3326.94 -32.89)"/><path class="cls-1" d="M3666.22,210.93h36.67a23.68,23.68,0,0,0,23.65-23.65,23.41,23.41,0,0,0-7.66-17.4,21.63,21.63,0,0,0-32.41-11.56,22.43,22.43,0,0,0-25.24,15.5,18.9,18.9,0,0,0,5,37.11Zm-.16-25.74a5.91,5.91,0,0,0,6.24-5.55,10.38,10.38,0,0,1,11.15-9.56,10.58,10.58,0,0,1,2.49.5,6,6,0,0,0,5.93-1.24,9.54,9.54,0,0,1,15.77,5.15,6.05,6.05,0,0,0,2.26,3.57,11.59,11.59,0,0,1-7,20.82h-36.67a6.85,6.85,0,0,1-.16-13.69Z" transform="translate(-3326.94 -32.89)"/></svg>