<?xml version="1.0" encoding="utf-8"?>
<!-- Generator: Adobe Illustrator 23.1.0, SVG Export Plug-In . SVG Version: 6.00 Build 0)  -->
<svg version="1.1" id="Capa_1" xmlns="http://www.w3.org/2000/svg" xmlns:xlink="http://www.w3.org/1999/xlink" x="0px" y="0px"
	 viewBox="0 0 744 512" style="enable-background:new 0 0 744 512;" xml:space="preserve">
<g>
	<g>
		<path d="M712.6,244.8c-1.5-2.3-38.3-56.6-97.9-111.5c-35.3-32.5-71.4-58.5-107.3-77.3c-45.8-23.9-91.3-36-135.4-36
			s-89.6,12.1-135.4,36c-35.8,18.7-71.9,44.7-107.3,77.3c-59.7,55-96.4,109.3-97.9,111.5c-4.6,6.8-4.6,15.7,0,22.5
			c1.5,2.3,38.3,56.6,97.9,111.5c35.3,32.5,71.4,58.5,107.3,77.3c45.8,23.9,91.3,36,135.4,36s89.6-12.1,135.4-36
			c35.8-18.7,71.9-44.7,107.3-77.3c59.7-55,96.4-109.3,97.9-111.5C717.1,260.4,717.1,251.6,712.6,244.8z M586.7,349.7
			c-50.7,46.5-129.1,102-214.7,102s-164-55.5-214.7-102C116.5,312.2,86.5,274.3,73,256c13.6-18.3,43.5-56.2,84.3-93.7
			c50.7-46.5,129.1-102,214.7-102s164,55.5,214.7,102c40.8,37.5,70.8,75.4,84.3,93.7C657.5,274.3,627.5,312.2,586.7,349.7z"/>
	</g>
</g>
<g>
	<g>
		<path d="M372,153.1c-56.7,0-102.9,46.2-102.9,102.9S315.3,358.9,372,358.9c56.7,0,102.9-46.2,102.9-102.9S428.7,153.1,372,153.1z
			 M372,319.9c-35.3,0-63.9-28.7-63.9-63.9s28.7-63.9,63.9-63.9c35.3,0,64,28.7,64,63.9S407.3,319.9,372,319.9z"/>
	</g>
</g>
</svg>
