<?xml version="1.0" encoding="utf-8"?>
<!-- Generator: Adobe Illustrator 25.0.0, SVG Export Plug-In . SVG Version: 6.00 Build 0)  -->
<svg version="1.1" id="Glyph" xmlns="http://www.w3.org/2000/svg" xmlns:xlink="http://www.w3.org/1999/xlink" x="0px" y="0px"
	 viewBox="0 0 32 32" style="enable-background:new 0 0 32 32;" xml:space="preserve">
<style type="text/css">
	.st0{fill:#558E6D;}
</style>
<path id="XMLID_223_" class="st0" d="M31.2,27.5l-6.8-6.8c1.3-2.1,2.3-4.7,2.3-7.3C26.7,6,20.7,0,13.3,0S0,6,0,13.3
	s6,13.3,13.3,13.3c2.7,0,5.2-0.8,7.3-2.3l6.8,6.8c1.1,1.1,2.7,1.1,3.7,0C32.3,30.1,32.3,28.5,31.2,27.5z M4,13.3C4,8.1,8.1,4,13.3,4
	s9.3,4.1,9.3,9.3s-4.1,9.3-9.3,9.3S4,18.5,4,13.3z"/>
</svg>
