<svg id="Layer_1" data-name="Layer 1" xmlns="http://www.w3.org/2000/svg" viewBox="0 0 894 211.4395">
  <g>
    <path id="fullLogo" d="M180.5084,97.9059c-5.1561,0-9.9827,2.5513-13.5907,7.184a2.1093,2.1093,0,0,0,0,2.5913c3.608,4.6327,8.4346,7.184,13.5907,7.184s9.9827-2.5513,13.5907-7.184a2.1093,2.1093,0,0,0,0-2.5913C190.4911,100.4572,185.6645,97.9059,180.5084,97.9059Zm0,12.7417a12.6088,12.6088,0,0,1-9.1513-4.262,11.9556,11.9556,0,0,1,18.3026,0A12.6085,12.6085,0,0,1,180.5084,110.6476Z" style="fill: #fff"/>
    <path id="fullLogo-2" data-name="fullLogo" d="M29.3266,114.8652c5.1561,0,9.9827-2.5513,13.5908-7.184a2.1093,2.1093,0,0,0,0-2.5913c-3.6081-4.6327-8.4347-7.184-13.5908-7.184s-9.9832,2.5513-13.5913,7.184a2.1093,2.1093,0,0,0,0,2.5913C19.3434,112.3139,24.17,114.8652,29.3266,114.8652Zm0-12.7417a12.6082,12.6082,0,0,1,9.1513,4.2621,12.6085,12.6085,0,0,1-9.1513,4.262,12.61,12.61,0,0,1-9.1518-4.262A12.6094,12.6094,0,0,1,29.3266,102.1235Z" style="fill: #fff"/>
    <path id="fullLogo-3" data-name="fullLogo" d="M105.5764,168.8129a2.1077,2.1077,0,0,0-2.5913,0c-4.6324,3.6086-7.1837,8.4352-7.1837,13.5907s2.5513,9.9827,7.1837,13.5907a2.1079,2.1079,0,0,0,2.5913,0c4.633-3.608,7.1843-8.4346,7.1843-13.5907S110.2094,172.4212,105.5764,168.8129Zm-1.2957,22.742a11.9562,11.9562,0,0,1,0-18.3025,11.9549,11.9549,0,0,1,0,18.3025Z" style="fill: #fff"/>
    <path id="fullLogo-4" data-name="fullLogo" d="M102.9854,42.6267a2.1083,2.1083,0,0,0,2.5913,0c4.6324-3.608,7.1837-8.4346,7.1837-13.5907s-2.5513-9.983-7.1837-13.5907a2.1077,2.1077,0,0,0-2.5913,0C98.353,19.053,95.8017,23.88,95.8017,29.036S98.353,39.0187,102.9854,42.6267Zm1.2956-22.7423a12.61,12.61,0,0,1,4.2618,9.1516,12.61,12.61,0,0,1-4.2618,9.1513,12.61,12.61,0,0,1-4.2617-9.1513A12.61,12.61,0,0,1,104.281,19.8844Z" style="fill: #fff"/>
    <path id="fullLogo-5" data-name="fullLogo" d="M159.8182,119.3485c-10.5535,0-20.5776,4.6524-28.8375,13.244-8.5952,8.2607-13.25,18.2874-13.25,28.8432,0,12.8113,6.8506,24.846,19.29,33.8864a2.1078,2.1078,0,0,0,2.4794,0c12.44-9.04,19.29-21.0748,19.29-33.8864,0-.349-.0073-.6971-.0175-1.0449.3478.01.6959.0175,1.0449.0175,12.8122,0,24.8466-6.8506,33.8861-19.29a2.1088,2.1088,0,0,0,0-2.48C184.6642,126.1991,172.63,119.3485,159.8182,119.3485ZM133.9733,135.58a52.0954,52.0954,0,0,1,4.2873-3.6929c8.6644,6.6653,14.1026,14.9142,15.7634,23.754-8.84-1.6605-17.0888-7.0989-23.7538-15.763A52.085,52.085,0,0,1,133.9733,135.58Zm20.6,25.8554c0,11.002-5.7786,21.4442-16.3126,29.5479-10.5334-8.104-16.312-18.5459-16.312-29.5479a33.1576,33.1576,0,0,1,5.6119-18.18c7.5279,9.4457,16.8978,15.2452,26.9659,16.7536C154.5481,160.4844,154.5732,160.9588,154.5732,161.4357Zm5.245-5.245c-.4769,0-.9513-.0251-1.426-.0468-1.5084-10.0683-7.3077-19.4381-16.7536-26.9657a33.1562,33.1562,0,0,1,18.18-5.6121c11.0023,0,21.4445,5.7786,29.5473,16.3123C181.2627,150.4121,170.8205,156.1907,159.8182,156.1907Z" style="fill: #fff"/>
    <path id="fullLogo-6" data-name="fullLogo" d="M182.49,169.1624l-13.8578-1.1479a2.1094,2.1094,0,0,0-2.2759,2.2771l1.1485,13.776a2.1091,2.1091,0,0,0,1.9264,1.9261l13.7761,1.148c.0588.005.1171.0073.1753.0073a2.1086,2.1086,0,0,0,2.1024-2.2715l-1.0668-13.776A2.109,2.109,0,0,0,182.49,169.1624Zm-10.93,12.7764-.7937-9.5152,9.5855.794.7373,9.5152Z" style="fill: #fff"/>
    <path id="fullLogo-7" data-name="fullLogo" d="M131.2926,79.575c8.26,8.592,18.2837,13.2446,28.8374,13.2446,12.8117,0,24.8461-6.8507,33.8868-19.29a2.1088,2.1088,0,0,0,0-2.48C184.9761,58.61,172.9417,51.76,160.13,51.76c-.3488,0-.6966.0074-1.0442.0175.01-.3477.0175-.6956.0175-1.0445,0-12.8114-6.8507-24.8461-19.29-33.8868a2.1088,2.1088,0,0,0-2.48,0c-12.4392,9.04-19.29,21.0751-19.29,33.8868C118.0434,61.288,122.6976,71.3144,131.2926,79.575Zm2.9928-2.9876a52.0228,52.0228,0,0,1-3.7027-4.2977c6.6651-8.6643,14.914-14.1027,23.7537-15.7631-1.6606,8.84-7.099,17.0884-15.7634,23.754A52.1,52.1,0,0,1,134.2854,76.5874Zm25.8446-20.61c11.0018,0,21.4446,5.7786,29.5479,16.3124C181.5746,82.8234,171.1324,88.602,160.13,88.602a33.1563,33.1563,0,0,1-18.1791-5.612c9.446-7.528,15.2454-16.898,16.7537-26.9659C159.1792,56.0025,159.6533,55.9773,160.13,55.9773ZM138.573,21.1845c10.534,8.1039,16.3127,18.5464,16.3127,29.5482,0,.4769-.0252.9511-.0468,1.4257-10.068,1.5082-19.4379,7.3077-26.9661,16.7536a33.1579,33.1579,0,0,1-5.6118-18.1793C122.261,39.7306,128.04,29.2884,138.573,21.1845Z" style="fill: #fff"/>
    <path id="fullLogo-8" data-name="fullLogo" d="M168.77,44.1606c.0576,0,.1159-.0023.1741-.007l13.8579-1.148a2.1084,2.1084,0,0,0,1.9281-1.939l1.0662-13.7761a2.1083,2.1083,0,0,0-2.2777-2.2641l-13.776,1.1479a2.1091,2.1091,0,0,0-1.9264,1.9264l-1.148,13.7761a2.1092,2.1092,0,0,0,2.1018,2.2838Zm3.1014-13.9314,9.529-.794-.7366,9.5152-9.5856.794Z" style="fill: #fff"/>
    <path id="fullLogo-9" data-name="fullLogo" d="M78.44,132.4186c-8.2595-8.592-18.2837-13.2446-28.8374-13.2446-12.8117,0-24.8461,6.8507-33.8868,19.29a2.1088,2.1088,0,0,0,0,2.48c9.0407,12.4395,21.0751,19.29,33.8868,19.29.3488,0,.6966-.0074,1.0442-.0175-.01.3477-.0175.6956-.0175,1.0445,0,12.8114,6.8507,24.8461,19.2905,33.8867a2.108,2.108,0,0,0,2.4795,0c12.4392-9.04,19.29-21.075,19.29-33.8867C91.6887,150.7056,87.0345,140.6792,78.44,132.4186Zm-2.9928,2.9876a52.0419,52.0419,0,0,1,3.7027,4.2977c-6.6651,8.6643-14.914,14.1026-23.7537,15.7631,1.6606-8.84,7.099-17.0884,15.7634-23.754A52.1,52.1,0,0,1,75.4467,135.4062Zm-25.8446,20.61c-11.0018,0-21.4446-5.7787-29.5479-16.3124C28.1575,129.17,38.6,123.3916,49.6021,123.3916a33.1563,33.1563,0,0,1,18.1791,5.612c-9.446,7.528-15.2454,16.898-16.7537,26.9659C50.5529,155.9911,50.0788,156.0163,49.6021,156.0163Zm21.557,34.7928c-10.5341-8.1039-16.3127-18.5464-16.3127-29.5482,0-.4769.0252-.9511.0468-1.4257,10.068-1.5082,19.4379-7.3077,26.9661-16.7536a33.1579,33.1579,0,0,1,5.6118,18.1793C87.4711,172.263,81.6925,182.7052,71.1591,190.8091Z" style="fill: #fff"/>
    <path id="fullLogo-10" data-name="fullLogo" d="M40.788,167.84,26.93,168.988a2.1084,2.1084,0,0,0-1.9281,1.939l-1.0662,13.7761a2.1085,2.1085,0,0,0,2.1023,2.2715c.0583,0,.1165-.0024.1754-.0074l13.776-1.1479a2.1092,2.1092,0,0,0,1.9264-1.9264l1.148-13.7764A2.1095,2.1095,0,0,0,40.788,167.84Zm-2.9273,13.9246-9.529.7941.7366-9.5155,9.5856-.7941Z" style="fill: #fff"/>
    <path id="fullLogo-11" data-name="fullLogo" d="M49.29,92.82c10.5554,0,20.5814-4.6542,28.8421-13.2489,8.5923-8.26,13.245-18.2847,13.245-28.838,0-12.8114-6.8506-24.8461-19.29-33.8868a2.1088,2.1088,0,0,0-2.48,0c-12.4393,9.04-19.29,21.0751-19.29,33.8868,0,.3489.0073.6968.0175,1.0445-.3478-.01-.6959-.0175-1.0448-.0175-12.8117,0-24.8461,6.8507-33.8868,19.29a2.1088,2.1088,0,0,0,0,2.48C24.4436,85.9689,36.478,92.82,49.29,92.82ZM75.1419,76.58a52.0364,52.0364,0,0,1-4.2953,3.7c-8.6638-6.6656-14.1022-14.9143-15.7627-23.754,8.84,1.6607,17.0887,7.099,23.7537,15.7631A52.0663,52.0663,0,0,1,75.1419,76.58ZM54.5346,50.7327c0-11.0021,5.7786-21.4443,16.312-29.5482,10.534,8.1039,16.3126,18.5464,16.3126,29.5482a33.1554,33.1554,0,0,1-5.6119,18.1791C74.0194,59.4661,64.65,53.6667,54.5814,52.1584,54.56,51.6838,54.5346,51.21,54.5346,50.7327ZM49.29,55.9773c.4768,0,.9512.0252,1.4259.0468C52.224,66.0923,58.0233,75.4624,67.4689,82.99A33.1552,33.1552,0,0,1,49.29,88.602c-11.0024,0-21.4446-5.7786-29.548-16.3123C27.8451,61.7559,38.2879,55.9773,49.29,55.9773Z" style="fill: #fff"/>
    <path id="fullLogo-12" data-name="fullLogo" d="M26.6177,43.0056l13.8578,1.148c.0583.0047.1165.007.1742.007a2.109,2.109,0,0,0,2.1017-2.2838L41.6035,28.1007a2.1092,2.1092,0,0,0-1.9264-1.9264L25.901,25.0264a2.1085,2.1085,0,0,0-2.2777,2.2641L24.69,41.0666A2.1084,2.1084,0,0,0,26.6177,43.0056ZM37.5483,30.2292l.7931,9.5152-9.5855-.794-.7367-9.5152Z" style="fill: #fff"/>
    <path id="fullLogo-13" data-name="fullLogo" d="M106.3378,56.2311a2.1089,2.1089,0,0,0-4.1141,0c-7.7868,34.4666-13.63,40.31-48.097,48.0973a2.1089,2.1089,0,0,0,0,4.114c34.4669,7.7874,40.31,13.6311,48.097,48.0977a2.109,2.109,0,0,0,4.1141,0c7.7874-34.4666,13.6307-40.31,48.0976-48.0977a2.1089,2.1089,0,0,0,0-4.114C119.9685,96.5413,114.1252,90.6977,106.3378,56.2311Zm-2.0571,90.8635c-6.7977-26.0258-14.6827-33.9112-40.7085-40.7092,26.0258-6.7977,33.9108-14.683,40.7085-40.7088,6.7983,26.0258,14.6834,33.9111,40.7092,40.7088C118.9641,113.1834,111.079,121.0688,104.2807,147.0946Z" style="fill: #fff"/>
    <path id="fullLogo-14" data-name="fullLogo" d="M258.2264,157.5871a103.91,103.91,0,0,1-14.5426-2.6716V132.21a60.7548,60.7548,0,0,0,13.9492,17.66c5.64,4.8973,11.5755,7.42,17.8088,7.42q10.4619,0,16.4724-5.7878c4.0075-3.71,5.9357-8.7556,5.9357-15.1368a21.8581,21.8581,0,0,0-3.4125-12.3178,33.9962,33.9962,0,0,0-9.0524-8.7556c-3.71-2.5228-7.57-4.7489-11.5755-6.975l-4.1555-2.3745c-.148-.1483-.4455-.2967-.5934-.445a128.3116,128.3116,0,0,1-13.06-8.1623,29.0412,29.0412,0,0,1-8.459-8.6072,21.9744,21.9744,0,0,1-2.9686-11.8723,21.621,21.621,0,0,1,8.0151-17.5117c5.3423-4.4522,12.3169-6.6783,20.7758-6.6783a136.5833,136.5833,0,0,1,17.3634,1.1872,105.5933,105.5933,0,0,1,14.3946,2.6712V79.23a63.629,63.629,0,0,0-13.8012-17.8088c-5.64-4.8972-11.5756-7.2717-17.9568-7.2717q-8.6817,0-14.2467,4.4522a14.5632,14.5632,0,0,0-5.64,11.8723,14.7493,14.7493,0,0,0,3.5621,9.7945,33.1356,33.1356,0,0,0,8.4589,7.8655c3.4125,2.3745,6.6787,4.6006,10.0912,6.53,1.0389.5938,1.93,1.1876,2.8191,1.781,1.93,1.0389,3.7117,2.2261,5.4919,3.265,4.601,2.6712,8.9044,5.3423,12.6144,8.0139a32.6186,32.6186,0,0,1,8.7549,9.349c2.0777,3.71,3.1166,8.1623,3.1166,13.6533,0,8.1623-2.8191,14.9889-8.4589,20.1829-5.7878,5.194-13.9492,7.8651-24.4859,7.8651A136.1213,136.1213,0,0,1,258.2264,157.5871Z" style="fill: #fff"/>
    <path id="fullLogo-15" data-name="fullLogo" d="M317.8844,156.9933c4.453-1.1872,9.2019-4.4522,10.2408-8.904V62.7573c-1.0389-4.4522-5.7878-7.7172-10.2408-8.9044h39.3277c22.4081,0,34.7266,6.0845,34.7266,21.9639,0,24.7834-51.942,25.6735-51.942,56.8381v15.4344c1.4843,5.7874,8.7564,7.7168,13.2078,8.904Zm62.0333-79.8409c0-14.9889-10.0912-21.8155-22.7056-21.8155H339.9967v67.82C347.4167,101.49,379.9177,102.5292,379.9177,77.1524Z" style="fill: #fff"/>
    <path id="fullLogo-16" data-name="fullLogo" d="M452.7836,156.9933c3.71-1.0389,6.6787-4.0068,6.6787-7.8655v-1.0385l-8.9044-21.8156H405.2945L396.54,148.0893v1.0385c0,3.8587,2.967,6.8266,6.6771,7.8655H382.1434a20.1457,20.1457,0,0,0,13.8029-11.5756l31.1646-77.17-1.1885-3.1162c-2.3736-4.7489-7.1225-10.24-11.278-11.2789h20.0345l36.9524,91.5648a20.1432,20.1432,0,0,0,13.8012,11.5756ZM428,70.3257,405.8879,124.79h44.0766Z" style="fill: #fff"/>
    <path id="fullLogo-17" data-name="fullLogo" d="M599.4079,156.9933H567.0565c4.4514-1.1872,9.0524-4.4522,10.2392-8.904V55.3369h-5.3423c-12.6145,0-22.7057,7.42-31.4622,16.1761l2.9687-17.66h79.5446l2.9671,17.66c-8.7549-8.7557-18.8461-16.1761-31.46-16.1761h-5.3423v92.7524C590.2076,152.5411,594.9566,155.8061,599.4079,156.9933Z" style="fill: #fff"/>
    <path id="fullLogo-18" data-name="fullLogo" d="M670.0481,156.9933h-32.353c4.453-1.1872,9.2019-4.4522,10.2408-8.904V62.7573c-1.0389-4.4522-5.7878-7.7172-10.2408-8.9044h32.353c-4.453,1.1872-9.0523,4.4522-10.2408,8.9044v85.332C660.9958,152.5411,665.5951,155.8061,670.0481,156.9933Z" style="fill: #fff"/>
    <path id="fullLogo-19" data-name="fullLogo" d="M725.1052,155.0639a12.524,12.524,0,0,1-5.7878-10.6851c0-5.0456,2.9687-10.3879,7.2721-16.9178l-4.1555-5.6395L692.9017,68.3963l-.1479,77.9119c1.1868,4.3039,5.7878,9.35,10.3871,10.6851H681.0286c4.4531-1.3356,9.202-6.3812,10.2408-10.6851l.148-80.7314c-1.0389-4.3038-5.7878-9.9428-10.2392-11.13h16.1749L732.9707,119.15l42.1468-64.7037h18.55c-4.6009,1.1873-9.2019,4.4518-10.3887,8.7557l-.148,84.8869c1.1869,4.3034,5.7878,7.5684,10.3888,8.904h-32.501c4.601-1.3356,9.2-4.6006,10.3887-8.904l.148-85.48-37.8433,58.0253c6.2332,9.4978,11.4276,16.9183,11.4276,23.7445a12.8267,12.8267,0,0,1-12.912,12.9112Q727.5552,157.29,725.1052,155.0639Zm10.0912-8.7557c0-3.8583-3.5621-10.0912-7.8655-17.3633-3.858,6.0845-6.5291,11.1305-6.5291,15.4339,0,4.8973,3.2645,9.2012,7.568,9.2012C732.5253,153.58,735.1964,150.1666,735.1964,146.3082Z" style="fill: #fff"/>
    <path id="fullLogo-20" data-name="fullLogo" d="M879,138.146l-2.9687,18.8473H803.3134c4.453-1.1872,9.2019-4.4522,10.2408-8.904V62.7573c-1.0389-4.4522-5.7878-7.7172-10.2408-8.9044h72.1245l2.9687,17.66c-8.6085-8.7557-21.6668-16.1761-34.4292-16.1761H825.4256v49.4184H849.17c7.42-1.7806,21.0733-6.5295,22.1122-10.3883v22.1122c-1.0389-3.8584-14.6922-8.6073-22.1122-10.24H825.4256v49.27h17.9568C855.9968,155.5094,870.2435,146.9017,879,138.146Z" style="fill: #fff"/>
  </g>
</svg>
