<svg id="Layer_1" data-name="Layer 1" xmlns="http://www.w3.org/2000/svg" xmlns:xlink="http://www.w3.org/1999/xlink" viewBox="0 0 445.8 408.64"><defs><style>.cls-1{fill:none;}.cls-2{clip-path:url(#clip-path);}</style><clipPath id="clip-path" transform="translate(-1579.21 -36.13)"><rect id="SVGID" class="cls-1" x="1579.21" y="35" width="446.93" height="410.94"/></clipPath></defs><g class="cls-2"><path d="M2017.56,147.58h-37.14V61.74a26,26,0,0,0-26.28-25.61,26.52,26.52,0,0,0-22.69,12.68l-47.62,79.33V61.74a26,26,0,0,0-26.27-25.61,26.52,26.52,0,0,0-22.69,12.68l-59.28,98.77H1586.66a7.43,7.43,0,1,0,0,14.85h180l-2.14,3.57a49.17,49.17,0,0,0-7,25.26V303.6a7.43,7.43,0,0,0,14.86,0V273.88h81.73V303.6a7.43,7.43,0,0,0,14.85,0V191.26a34.37,34.37,0,0,1,4.89-17.62l6.72-11.21h137a7.43,7.43,0,1,0,0-14.85ZM1854.12,259h-81.73V221.87h81.73Zm7-93a49.08,49.08,0,0,0-7,25.26V207h-81.73V191.26a34.28,34.28,0,0,1,4.89-17.62l6.72-11.21h79.26Zm7.85-18.42h-76l54.69-91.13a11.58,11.58,0,0,1,10-5.46A11.14,11.14,0,0,1,1869,61.74Zm96.59,0H1889.5l54.69-91.13a11.6,11.6,0,0,1,10-5.46,11.16,11.16,0,0,1,11.42,10.75Zm0,0" transform="translate(-1579.21 -36.13)"/><path d="M2022.89,335.42a7.44,7.44,0,0,0-10.53-.15,29.73,29.73,0,0,1-41.2,0,44.68,44.68,0,0,0-61.92,0,29.77,29.77,0,0,1-41.2,0,44.68,44.68,0,0,0-61.92,0,29.74,29.74,0,0,1-41.21,0,44.67,44.67,0,0,0-61.91,0,29.78,29.78,0,0,1-41.21,0,44.68,44.68,0,0,0-61.92,0l-18.41,17.91a7.44,7.44,0,0,0,10.38,10.65L1610.25,346a29.72,29.72,0,0,1,41.21,0,44.72,44.72,0,0,0,61.92,0,29.71,29.71,0,0,1,41.2,0,44.7,44.7,0,0,0,61.92,0,29.71,29.71,0,0,1,41.2,0,44.72,44.72,0,0,0,61.92,0,29.71,29.71,0,0,1,41.2,0,44.7,44.7,0,0,0,61.92,0,7.44,7.44,0,0,0,.15-10.53Zm0,0" transform="translate(-1579.21 -36.13)"/><path d="M2022.88,263.36a7.43,7.43,0,0,0-10.52-.12,29.73,29.73,0,0,1-41.2,0,44.7,44.7,0,0,0-61.92,0,29.57,29.57,0,0,1-18.5,8.22,7.43,7.43,0,0,0-6.91,7.92h0a7.55,7.55,0,0,0,7.93,6.9,44.39,44.39,0,0,0,27.86-12.4,29.71,29.71,0,0,1,41.2,0,44.7,44.7,0,0,0,62,0,7.44,7.44,0,0,0,.11-10.52Zm0,0" transform="translate(-1579.21 -36.13)"/><path d="M1735.49,250.75A44.4,44.4,0,0,0,1703,263.21a29.72,29.72,0,0,1-41.21,0,44.72,44.72,0,0,0-61.92,0l-18.43,17.94a7.44,7.44,0,1,0,10.4,10.65l18.39-17.92a29.78,29.78,0,0,1,41.21,0,44.74,44.74,0,0,0,61.92,0,29.57,29.57,0,0,1,21.62-8.27,7.43,7.43,0,1,0,.49-14.86Zm0,0" transform="translate(-1579.21 -36.13)"/><path d="M2022.89,414.24a7.44,7.44,0,0,0-10.53-.15,29.71,29.71,0,0,1-41.2,0,44.7,44.7,0,0,0-61.92,0,29.77,29.77,0,0,1-41.2,0,44.72,44.72,0,0,0-61.92,0,29.72,29.72,0,0,1-41.21,0,44.69,44.69,0,0,0-61.91,0,29.78,29.78,0,0,1-41.21,0,44.72,44.72,0,0,0-61.92,0L1581.46,432a7.42,7.42,0,0,0-.15,10.5l0,0a7.44,7.44,0,0,0,10.51.14l18.41-17.91a29.76,29.76,0,0,1,41.21,0,44.7,44.7,0,0,0,61.92,0,29.73,29.73,0,0,1,41.2,0,44.68,44.68,0,0,0,61.92,0,29.73,29.73,0,0,1,41.2,0,44.7,44.7,0,0,0,61.92,0,29.73,29.73,0,0,1,41.2,0,44.7,44.7,0,0,0,61.92,0,7.43,7.43,0,0,0,.15-10.52Zm0,0" transform="translate(-1579.21 -36.13)"/></g></svg>