<svg xmlns="http://www.w3.org/2000/svg" width="48.489" height="67.982" viewBox="0 0 48.489 67.982">
  <g id="Group_9" data-name="Group 9" transform="translate(-1685.536 -833.956)">
    <path id="Path_33" data-name="Path 33" d="M1733.423,835.212a.991.991,0,0,1,.592,1.048q-1.162,8.386-2.322,16.773c-.4,2.888-.936,5.769-1.1,8.671a18.776,18.776,0,0,0,.731,4.958c.577,2.607,1.643,5.159,1.842,7.785.306,4.019-1.8,7.142-5.811,7.8-9.981,1.643-16.775,7.929-23.311,14.839-3.735,3.949-8.378,5.722-13.778,4.434a6.214,6.214,0,0,1-3.254-10.046,40.77,40.77,0,0,1,4.364-4.149c5.024-4.312,7.709-9.959,9.507-16.508a75.628,75.628,0,0,1,5.6-14.661,38.045,38.045,0,0,0,3.875-20.9l0-.031a1.254,1.254,0,0,1,2.462-.357,2.133,2.133,0,0,1,.05.293,38.162,38.162,0,0,1-3.3,20.2,120.084,120.084,0,0,0-6.919,18.094,33.069,33.069,0,0,1-11.784,17.724c-2.01,1.58-3.674,3.328-2.388,6,1.262,2.62,3.775,2.454,6.226,2.162,3.946-.471,6.578-2.976,9.119-5.7,4.906-5.26,10.261-9.927,17.223-12.3,1.522-.52,3.114-.844,4.685-1.212,3.747-.878,5.17-2.55,4.856-6.414a12.916,12.916,0,0,0-1.505-5.875c-1.683-2.57-1.35-5.1-.989-7.74,1.024-7.488,2.066-14.976,3.193-22.449a6.207,6.207,0,0,1,.866-2.019.992.992,0,0,1,1.254-.425Z" fill="#fff"/>
    <path id="Path_34" data-name="Path 34" d="M1696.714,876.142a6.515,6.515,0,0,1-2.226,8.849,5.57,5.57,0,0,1-2.642.775,6.005,6.005,0,0,1-6.086-6.184c.092-3.994,2.123-7.17,4.842-9.883.391-.389,1.862-1.276,2.674.078C1694.589,871.818,1695.514,874.028,1696.714,876.142Zm-4.749-4.958c-.527-.046-1.029,1.191-1.029,1.191a33.961,33.961,0,0,0-2.577,6.882c-.508,2.255,1.052,3.737,3.283,3.836a2.982,2.982,0,0,0,3.33-3.721,44.04,44.04,0,0,0-2.385-7.01C1692.6,872.291,1692.276,871.21,1691.965,871.183Z" transform="translate(-0.078 -12.3)" fill="#fff"/>
  </g>
</svg>
