<svg xmlns="http://www.w3.org/2000/svg" width="64.644" height="65.195" viewBox="0 0 64.644 65.195">
  <g id="Group_8" data-name="Group 8" transform="translate(-442.863 -324.12)">
    <path id="Path_26" data-name="Path 26" d="M463.684,324.652a1.167,1.167,0,0,1,2.138.487,1.21,1.21,0,0,1,0,.19,11.657,11.657,0,0,1-10.148,10.5c-1.735.243-3.475.458-5.2.767-3.78.677-5.7,3.355-5.07,7.09,1.118,6.593,2.318,13.172,3.377,19.775l.006.037a1.1,1.1,0,0,1-2.105.522,1.743,1.743,0,0,1-.071-.258c-1.275-6.565-2.433-13.154-3.578-19.744-.874-5.028,1.633-8.532,6.76-9.561a19.284,19.284,0,0,1,2.43-.449c5.7-.39,9.856-2.679,11.172-8.713A2,2,0,0,1,463.684,324.652Z" fill="#fff"/>
    <path id="Path_27" data-name="Path 27" d="M533.2,343.781c-1.133,6.3-2.439,13.7-3.844,21.086a.955.955,0,0,1-.159.361,1.1,1.1,0,0,1-1.918-.288,1.562,1.562,0,0,1-.113-.781c.986-6.1,2.084-12.179,3.187-18.258,1.172-6.461-.277-8.5-6.686-9.32-8.122-1.034-11.505-3.632-13.2-10.317a1.568,1.568,0,0,1-.025-.574,1.173,1.173,0,0,1,2-.7,1.012,1.012,0,0,1,.281.478c1.354,6.463,5.979,8.232,11.794,8.826C530.56,334.916,533.381,337.836,533.2,343.781Z" transform="translate(-25.702 -0.2)" fill="#fff"/>
    <path id="Path_28" data-name="Path 28" d="M527.113,360.852c-.74,5.045-1.444,9.412-2.008,13.8a60.086,60.086,0,0,0,2.733,26.793l.007.021a1.126,1.126,0,0,1-1.945,1.007,1.54,1.54,0,0,1-.247-.424c-4.094-11.029-4.2-22.334-2.168-33.771.414-2.328.669-4.691,1.222-6.983a2.713,2.713,0,0,1,.326-.757,1.127,1.127,0,0,1,2.017.158Z" transform="translate(-30.176 -13.642)" fill="#fff"/>
    <path id="Path_29" data-name="Path 29" d="M464.3,377.636a33.817,33.817,0,0,1-.332,11.591c-.865,4.242-1.791,8.739-2.789,13.221a1.5,1.5,0,0,1-.34.626,1.128,1.128,0,0,1-1.987-.6,1.46,1.46,0,0,1,.061-.632c4.551-12.7,3.4-25.51.954-38.364-.038-.2-.2-.4-.171-.587.03-.2.062-.4.094-.607a1.112,1.112,0,0,1,2.194-.012l.006.032C462.806,367.261,463.524,372.231,464.3,377.636Z" transform="translate(-6.081 -14.163)" fill="#fff"/>
    <path id="Path_30" data-name="Path 30" d="M493.257,405.635a11.443,11.443,0,0,1-6.469.3l-.027-.007c-4.005-1-6.13-3.3-5.887-6.345.237-2.969,2.776-5.356,6.725-5.514a17.944,17.944,0,0,1,7.469,1.1,5.231,5.231,0,0,1,.868,9.231A12.772,12.772,0,0,1,493.257,405.635Zm-3.7-1.743c3.441.042,6.611-1.8,6.649-3.873.035-1.861-3.121-3.889-6.266-4.027-3.055-.134-6.548,1.858-6.692,3.817C483.086,402,485.943,403.847,489.556,403.892Z" transform="translate(-14.452 -26.602)" fill="#fff"/>
    <path id="Path_31" data-name="Path 31" d="M490.124,380.229c-4.409.007-7.971-2.4-8.1-5.483-.134-3.278,3.361-5.765,8.089-5.755,4.892.009,8.036,2.288,7.959,5.769C498,378.045,494.837,380.221,490.124,380.229Zm.209-2.437c2.1-.233,5.166-.058,5.116-3.2-.048-3.042-3.052-3.073-5.409-3.133-3.029-.078-5.918,1.549-5.534,3.185C485.183,377.528,487.695,377.693,490.333,377.792Z" transform="translate(-14.897 -17.069)" fill="#fff"/>
    <path id="Path_32" data-name="Path 32" d="M491.036,357.822c-3.581.006-6.474-1.953-6.576-4.453-.108-2.662,2.73-4.682,6.57-4.675,3.974.007,6.527,1.859,6.464,4.685C497.435,356.047,494.863,357.816,491.036,357.822Zm.17-1.98c1.706-.189,4.2-.047,4.156-2.6-.039-2.471-2.479-2.5-4.394-2.545-2.46-.063-4.806,1.258-4.495,2.587C487.022,355.628,489.062,355.762,491.205,355.842Z" transform="translate(-15.822 -9.348)" fill="#fff"/>
  </g>
</svg>
