<svg xmlns="http://www.w3.org/2000/svg" width="66.416" height="59.515" viewBox="0 0 66.416 59.515">
  <g id="Group_7" data-name="Group 7" transform="translate(-1920.107 -699.526)">
    <path id="Path_24" data-name="Path 24" d="M1979.065,750.707c.69-.278,1.271-.5,1.844-.745,2.033-.86,3.776-.477,4.93,1.427a3.808,3.808,0,0,1-1.008,5.35q-8.691,6.816-17.533,13.44c-2.356,1.769-4.86,3.343-7.317,4.975a9.222,9.222,0,0,1-8.959,1.027c-6.291-2.368-12.741-4.311-19.045-6.647-3.672-1.36-6.5.741-9.646,1.715q-.476.148-.964.259a1.022,1.022,0,0,1-.851-1.807c3.192-2.35,8.662-3.663,11.775-2.623,6.379,2.13,12.738,4.324,19.051,6.64a8.083,8.083,0,0,0,8.26-1.286c7.487-5.617,15.065-11.115,22.521-16.771a2.547,2.547,0,0,0,.688-.881,1.331,1.331,0,0,0-1.371-1.921,2.709,2.709,0,0,0-1.053.352c-5.688,3.59-11.335,7.251-16.876,11.065-3.6,2.481-7.33,2.688-10.27-.434a8.572,8.572,0,0,0-7.258-2.828,2.082,2.082,0,0,1-.315-.01,1.176,1.176,0,0,1,.079-2.333l.063,0c5.69-.123,11.385-.006,17.076-.127a2.933,2.933,0,0,0,1.25-.381,1.371,1.371,0,0,0,.392-2.14,2.643,2.643,0,0,0-1.368-.946c-8.407-1.366-16.825-3.2-25.287-3.481-4.461-.151-9.019,2.488-13.527,3.885a12.369,12.369,0,0,1-2.372.827c-.042,0-.084.007-.127.009a1.229,1.229,0,0,1-.585-2.331l.023-.01c3.016-1.218,6.214-2.014,9.167-3.356,5.681-2.582,11.373-1.192,17.071-.42,4.689.636,9.345,1.513,14.037,2.122a7.956,7.956,0,0,0,3.616-.543c1.968-.726,3.827-1.741,5.755-2.584C1974.671,747.562,1975.847,747.772,1979.065,750.707Zm-2.251,1.547c-2.455-2.236-5.784-1.462-9.518,1.927l1.6,2.911Zm-14.458,9.143H1954.4C1957.857,764.291,1959.47,764.289,1962.355,761.4Z" transform="translate(0 -17.854)" fill="#fff"/>
    <path id="Path_25" data-name="Path 25" d="M1956.885,714.428c.264-5.173,3.677-10.152,7.9-14.676a2.42,2.42,0,0,1,2.346.182c3.9,4.344,7.337,9,7.732,15.129.375,5.808-3.308,9.969-8.8,10.077C1960.619,725.247,1956.919,721.462,1956.885,714.428Zm8.982-12.282c-3.378,4.179-6.247,8.116-6.583,13.33-.2,3.07,1.069,5.681,3.858,6.552a9.224,9.224,0,0,0,6.459-.6c2.54-1.357,3.271-4.158,2.739-7.127C1971.515,709.7,1969.131,705.949,1965.867,702.146Z" transform="translate(-13.497)" fill="#fff"/>
  </g>
</svg>
