<svg xmlns="http://www.w3.org/2000/svg" width="57.503" height="74.428" viewBox="0 0 57.503 74.428">
  <path id="Path_19" data-name="Path 19" d="M2206.541,813.21c-.233-.026-.466-.055-.7-.083-.528-.064-1.074-.13-1.618-.176a66.1,66.1,0,0,1-21.2-5.509c-1.062-.471-1.721-.78-1.913-1.1-.182-.307-.128-.955.043-2.121a23.952,23.952,0,0,1,.722-3.032c.124-.441.25-.881.364-1.323a16.78,16.78,0,0,1,3.181-5.935l.573-.508c.431-.382.847-.751,1.259-1.125a9.941,9.941,0,0,1,6.354-3c1.117-.049,2.263-.051,3.371-.054.547,0,1.094,0,1.641-.009.184,0,.369-.012.562-.023l.979-.047v-1.847c0-1.24,0-2.437-.009-3.634a1.847,1.847,0,0,0-.3-.924c-1.03-1.669-1.9-3.065-2.793-4.459a2.357,2.357,0,0,0-.753-.678l-.051-.033c-.265-.173-.538-.327-.8-.476a5.864,5.864,0,0,1-1.275-.864,8.976,8.976,0,0,1-2.472-5.514,4.637,4.637,0,0,1,1.088-4.083,1.745,1.745,0,0,0,.355-1.3c-.021-.721-.053-1.441-.086-2.161-.021-.49-.044-.98-.062-1.47-.01-.279-.008-.559,0-.838,0-.136,0-.272,0-.407a45.983,45.983,0,0,1,.481-5.35l.027-.161-.471-1.72c.012-.4.016-.794.021-1.193a18.676,18.676,0,0,1,.273-3.642,9.089,9.089,0,0,1,8.783-7.11,3.231,3.231,0,0,0,1.746-.6,9.972,9.972,0,0,1,11.832.05,2.53,2.53,0,0,0,1.413.542h.136a9.2,9.2,0,0,1,9.092,9.284c.009.541.007,1.081,0,1.621,0,.637-.006,1.294.01,1.949l-1.111,1.265.268.463c.782,1.352,1.333,5.2,1.48,6.567l0,.035.007.034a11.706,11.706,0,0,1,.158,2.26,10.311,10.311,0,0,0,.447,3.52c.674,1.9.3,3.969-1.182,6.515a5.626,5.626,0,0,1-2.872,2.676,2.507,2.507,0,0,0-1.146.943c-.7,1.056-1.392,2.144-2.058,3.2l-.505.8c-.021.034-.045.067-.07.1a1.533,1.533,0,0,0-.344.86c-.018,1.288-.016,2.554-.014,3.894v1.961h.746c.466,0,.925,0,1.378.009s.891.01,1.33.01c.617,0,1.128-.009,1.607-.029.154-.006.307-.009.459-.009a10.692,10.692,0,0,1,7.78,3.492c.124.124.253.243.41.387l.2.189,3.035,4.125a2.82,2.82,0,0,0,.265.971,19.841,19.841,0,0,1,1.835,6.555c.125,1.363,0,1.606-1.131,2.169a55.488,55.488,0,0,1-15.068,4.9c-1.857.329-3.778.545-5.636.754-.9.1-1.792.2-2.687.315-.2.025-.38.066-.556.1l-.145.032Zm-20.585-12.678c-1.726,0-1.916.967-2.26,2.723-.3,1.517-.115,1.861,1.306,2.464a66.36,66.36,0,0,0,26.226,5.144h.038l.037,0c.444-.041.992-.086,1.615-.137,1.712-.14,4.056-.331,6.369-.628a57.08,57.08,0,0,0,15.844-4.552,1.315,1.315,0,0,0,.812-1.677l-.038-.138c-.182-.667-.37-1.356-.506-2.031a1.408,1.408,0,0,0-1.5-1.238c-.071,0-.145,0-.223.008a57.856,57.856,0,0,0-10.641,1.666c-5.391,1.422-9.341,3.452-12.429,6.39a1.1,1.1,0,0,1-.762.356,1.991,1.991,0,0,1-1.131-.493q-.438-.334-.874-.673a29.7,29.7,0,0,0-4.044-2.789c-4.479-2.406-9.606-3.739-16.626-4.322C2186.686,800.563,2186.289,800.532,2185.956,800.532Zm11.288-8.908q-1.334,0-2.667.013a7.693,7.693,0,0,0-2.021.232c-2.84.809-4.571,2.922-6.1,5.016l-.765,1.048,1.29.134c7.6.79,15.564,2.252,22.324,7.549l.46.361.46-.361c6.743-5.284,14.682-6.744,22.258-7.536l1.09-.114-.505-.972-.064-.126a1.757,1.757,0,0,0-.135-.239l-.029-.041c-.153-.218-.307-.435-.469-.646-2.3-2.992-4.785-4.386-7.812-4.386-.32,0-.65.016-.981.049-.54.053-1.12.078-1.824.078-.549,0-1.1-.015-1.65-.03-.445-.012-.89-.024-1.333-.028-1.371-.013-1.725-.368-1.726-1.725v-4.323l-1.184.857a10.312,10.312,0,0,1-6.112,2.23,10.569,10.569,0,0,1-6.026-2.108l-1.168-.8s0,3.57,0,4.152c0,1.46-.264,1.717-1.748,1.72Zm.162-16.562c.6,0,.972.347,1.452,1.376a22.156,22.156,0,0,0,5.379,7.457,8.272,8.272,0,0,0,5.5,2.394,7.206,7.206,0,0,0,1.735-.218,10.914,10.914,0,0,0,5.371-3.631,25.341,25.341,0,0,0,4.136-6.455,1.25,1.25,0,0,1,1.224-.892c.046,0,.094,0,.143,0,.032,0,.066,0,.1,0a1.705,1.705,0,0,0,1.222-.518,7.2,7.2,0,0,0,1.8-5.157l-.024-.637-.972-.115c-.227-.026-.437-.05-.648-.079-1-.139-2-.264-3.008-.389-2.224-.277-4.524-.564-6.741-1A23.769,23.769,0,0,1,2203,762.261a1.239,1.239,0,0,0-.382-.213c-.018-.007-.037-.014-.056-.022l-.6-.277-.345.566a29.315,29.315,0,0,1-5.152,6.42,14.771,14.771,0,0,1-1.279,1.009c-.24.176-.488.359-.747.557l-.344.264.06.43a6.9,6.9,0,0,0,1.769,3.683,1.377,1.377,0,0,0,.955.435,1.014,1.014,0,0,0,.174-.015A2.012,2.012,0,0,1,2197.405,775.063Zm4.581-17.187a1.3,1.3,0,0,1,1.063.752,5.875,5.875,0,0,0,.636.9,13.718,13.718,0,0,0,5.1,3.527,43.037,43.037,0,0,0,13.141,3.023c.429.041.859.073,1.291.1l1.389.106.017-.789a19.9,19.9,0,0,0-1-6.763c-1.349-4.1-3.848-6.79-7.428-8a21.208,21.208,0,0,0-6.812-1.147,21.638,21.638,0,0,0-7.459,1.364,9.14,9.14,0,0,0-5.709,5.923,19.756,19.756,0,0,0-.8,7.433l.022.4,1.128.656.4-.549c.2-.28.409-.558.615-.836.477-.641.969-1.3,1.411-2,.417-.657.795-1.339,1.161-2,.252-.454.5-.907.768-1.354A1.319,1.319,0,0,1,2201.987,757.876Zm7.855-10.606c5.418,0,9.616,1.587,12.832,4.85l1.285,1.3-.008-2.053a9.865,9.865,0,0,0-.194-2.375,6.813,6.813,0,0,0-6.8-5.316c-.213,0-.431.008-.647.025l-.058,0a3.051,3.051,0,0,1-1.18-.4,3.244,3.244,0,0,1-.584-.44,5.164,5.164,0,0,0-.727-.556,7.81,7.81,0,0,0-4-1.148,7.541,7.541,0,0,0-4.964,1.91,2.377,2.377,0,0,1-1.641.679c-.092,0-.188,0-.285-.015-.218-.021-.438-.032-.655-.032a6.64,6.64,0,0,0-4.823,2.079,7.1,7.1,0,0,0-1.963,5.259l.069,1.675,1.2-1.172c3.836-3.754,8.575-4.275,13.125-4.279Z" transform="translate(-2181 -738.782)" fill="#fff"/>
</svg>
