<svg xmlns="http://www.w3.org/2000/svg" width="47.523" height="67.16" viewBox="0 0 47.523 67.16">
  <g id="Group_14" data-name="Group 14" transform="translate(-1553.452 -410.076)">
    <g id="Group_10" data-name="Group 10" transform="translate(1553.452 410.076)">
      <path id="Path_35" data-name="Path 35" d="M1593.433,426.767c4.72,3.316,8.458,7.51,7.344,13.557-.694,3.767-3.005,7.231-4.544,10.851a14.85,14.85,0,0,0-1.514,4.26,26.009,26.009,0,0,1-12.057,20.3,7.758,7.758,0,0,1-9.39-.156,27.619,27.619,0,0,1-11.619-17.936c-.8-3.843-3.082-7.441-5.013-10.975-7.8-14.285-.7-31.66,14.9-35.466a49.2,49.2,0,0,1,13.717-1.046c6.38.289,10.719,7.116,9.116,13.541C1594.123,424.691,1593.772,425.665,1593.433,426.767Zm-31.8,22.894c1.638-8.124,7.5-15.872,16.045-17.012,3.5-.467,6.863-2.471,10.116-4.118a8.521,8.521,0,0,0,4.264-9.609,8.37,8.37,0,0,0-8.571-6.445c-2.615.026-5.234.243-7.841.483-8.618.794-14.771,5.3-18.035,13.157C1554.156,434.44,1555.827,442.242,1561.634,449.66Zm30.777,1.928c-.723-1.939-1.58-6.151-3.706-9.576-5.489-8.844-15.017-8.822-21.039-.338-7.358,10.366-3.267,26.938,8.217,32.47a6.34,6.34,0,0,0,5.178-.458C1588.389,469.182,1591.957,462.378,1592.411,451.588Zm-.545-22.471-8.389,4.26c2.345,2.238,4.981,4.2,6.869,6.716,1.864,2.488,2.969,5.544,4.374,8.286C1600.846,441.744,1599.589,433.169,1591.866,429.117Z" transform="translate(-1553.452 -410.076)" fill="#fff"/>
    </g>
    <g id="Group_11" data-name="Group 11" transform="translate(1566.161 446.96)">
      <path id="Path_36" data-name="Path 36" d="M1578.547,478.468a4.922,4.922,0,1,1,4.921-4.921A4.928,4.928,0,0,1,1578.547,478.468Zm0-7.323a2.4,2.4,0,1,0,2.4,2.4A2.4,2.4,0,0,0,1578.547,471.145Z" transform="translate(-1573.625 -468.625)" fill="#fff"/>
    </g>
    <g id="Group_12" data-name="Group 12" transform="translate(1580.177 446.96)">
      <path id="Path_37" data-name="Path 37" d="M1600.8,478.468a4.922,4.922,0,1,1,4.921-4.921A4.928,4.928,0,0,1,1600.8,478.468Zm0-7.323a2.4,2.4,0,1,0,2.4,2.4A2.4,2.4,0,0,0,1600.8,471.145Z" transform="translate(-1595.875 -468.625)" fill="#fff"/>
    </g>
    <g id="Group_13" data-name="Group 13" transform="translate(1572.324 462.651)">
      <path id="Path_38" data-name="Path 38" d="M1589.176,498.04a7.381,7.381,0,0,1-5.437-2.4,1.26,1.26,0,0,1,1.86-1.7,4.842,4.842,0,0,0,7.017.144,1.26,1.26,0,1,1,1.79,1.773A7.313,7.313,0,0,1,1589.176,498.04Z" transform="translate(-1583.409 -493.532)" fill="#fff"/>
    </g>
  </g>
</svg>
