<svg xmlns="http://www.w3.org/2000/svg" width="58.827" height="59.515" viewBox="0 0 58.827 59.515">
  <g id="Group_6" data-name="Group 6" transform="translate(-1485.85 -666.358)">
    <path id="Path_20" data-name="Path 20" d="M1553.927,711.449c-.812-3.034-1.5-5.62-2.2-8.205-.551-2.044.738-6.689,2.593-7.042,1.921-.366,4.228.414,6.159,1.2,2.648,1.077,3.65,3.431,4.545,6.186,1.574,4.846,2.991,9.623,2.664,14.762v.019a1.074,1.074,0,0,1-1.891.625,2.9,2.9,0,0,1-.23-.321,2.728,2.728,0,0,1-.229-1.643c.648-5.254-1.494-9.916-3.091-14.688-1.032-3.084-5.425-4.4-7.7-2.259a2.913,2.913,0,0,0-.7,2.321c.469,2.284,1.177,4.522,1.836,6.765,1.19,4.051.5,4.625-3.511,4.173a.286.286,0,0,0-.18.53,44.194,44.194,0,0,1,5.424,3.436c1.691,1.445,3,3.356,5.65,1.99.175-.09,1.033.567,1.058.914a1.464,1.464,0,0,1-.856,1.162c-4.3.425-3.3,3.489-2.845,5.985.6,3.3,1.627,6.527,2.351,9.811a1.443,1.443,0,0,1,.029.2c.088,1.139-1.464,1.683-1.929.64a.75.75,0,0,1-.047-.143c-1.156-5.292-2.093-10.631-3.3-15.91a6,6,0,0,0-2.1-3.175c-2.153-1.628-4.609-2.854-6.791-4.449a2.544,2.544,0,0,1-.731-2.352,3.278,3.278,0,0,1,2.351-1.358C1551.285,710.542,1552.359,711.061,1553.927,711.449Z" transform="translate(-27.031 -12.977)" fill="#fff"/>
    <path id="Path_21" data-name="Path 21" d="M1508.739,721.4c1.589-.457,2.661-1.039,3.7-.978a3.281,3.281,0,0,1,2.352,1.4c.275.5-.234,1.826-.8,2.309a23.8,23.8,0,0,1-4.627,3.161,13.885,13.885,0,0,0-7.928,10.811,6.058,6.058,0,0,1-1.5,2.535.875.875,0,0,1-1.553-.625c.085-.828.829-1.647.965-2.444a56.09,56.09,0,0,1,1.491-5.5,11.572,11.572,0,0,1-2.051-1.086,1.489,1.489,0,0,1-.3-1.215c.039-.229.677-.611.84-.527,3.3,1.708,4.764-1.347,6.886-2.636,1.152-.7,3.844-2.385,5.665-3.587a.175.175,0,0,0-.114-.32c-1.231.122-3.012.8-3.417.832-2.115.185-2.4-.89-1.9-2.608.756-2.6,1.586-5.194,2.158-7.839a5.426,5.426,0,0,0-.278-3.474c-1.055-1.578-2.283-2.148-3.641-1.621-1.574.611-3.547,1.95-4.821,5.41-1,4.338-3.159,8.391-2.605,13.089a7.255,7.255,0,0,1-.74,3.035.79.79,0,0,1-.9.511l-.015,0a.879.879,0,0,1-.707-.92c.2-3.278.093-6.635.889-9.761.969-3.8,3.01-7.323,4.3-11.062.387-1.121-.142-2.57-.3-3.864a15.459,15.459,0,0,1-.373-2.483.922.922,0,0,1,.028-.18,1.1,1.1,0,0,1,1.988-.265.642.642,0,0,1,.059.152c.4,1.621.587,3.292.926,5.373a15.872,15.872,0,0,1,2.941-1.452c1.832-.564,2.788-.024,3.938,1.462,2.32,3,2.029,5.951.784,9.171A48.892,48.892,0,0,0,1508.739,721.4Z" transform="translate(-3.945 -15.098)" fill="#fff"/>
    <path id="Path_22" data-name="Path 22" d="M1489.6,695.167a.915.915,0,0,1-1.152-.232,3.613,3.613,0,0,1-.827-1.4c-.639-3.021-1.166-6.068-1.641-9.12-.7-4.527,1.518-7.587,6.085-8.5a20.57,20.57,0,0,1,2.487-.44c5.072-.375,8.764-2.436,9.987-7.794a.887.887,0,0,1,.05-.152,1.039,1.039,0,0,1,1.957.39,1.71,1.71,0,0,1-.032.585c-1.541,6.148-5.817,8.651-11.887,9.189a6.7,6.7,0,0,0-6.1,8.059c.523,2.672.889,5.374,1.271,8.071a4.76,4.76,0,0,1-.2,1.34Z" transform="translate(0 -0.264)" fill="#fff"/>
    <path id="Path_23" data-name="Path 23" d="M1568.4,675.725a33.6,33.6,0,0,0-3.315-.559c-4.637-.492-8.29-2.155-9.4-7.275a2.233,2.233,0,0,0-.585-.981,1.786,1.786,0,0,0-1.008-.552l0,.01a.825.825,0,0,0-.723.67,1.86,1.86,0,0,0,.079.949,46.445,46.445,0,0,0,3.086,5.766c2.2,3.242,5.955,3.17,9.337,3.638,5.1.7,6.526,2.423,5.786,7.493-.4,2.774-.993,5.523-1.371,8.3a1.145,1.145,0,0,0,.025.409,1.014,1.014,0,0,0,1.8.352.835.835,0,0,0,.134-.3,104.48,104.48,0,0,0,1.831-10.771C1574.431,679.091,1572.171,676.51,1568.4,675.725Z" transform="translate(-29.444)" fill="#fff"/>
  </g>
</svg>
